<?xml version="1.0" encoding="utf-8"?>
<!-- Generator: Adobe Illustrator 19.0.0, SVG Export Plug-In . SVG Version: 6.00 Build 0)  -->
<svg version="1.1" id="Capa_1" xmlns="http://www.w3.org/2000/svg" xmlns:xlink="http://www.w3.org/1999/xlink" x="0px" y="0px"
	 viewBox="-379 711 200 140" style="enable-background:new -379 711 200 140;" xml:space="preserve">
<style type="text/css">
	.st0{fill:#342B1F;}
</style>
<g id="XMLID_39_">
	<g id="XMLID_432_">
		<polygon class="st0" points="-337.8,766.9 -338.7,769.1 -336.9,769.1 		"/>
	</g>
	<g id="XMLID_429_">
		<path class="st0" d="M-311.6,795.9c0.1-0.2,0.1-0.3,0.2-0.4c0,0-0.1,0-0.1,0c-0.4,0-1.1,0.7-1.4,1c-0.2,0.3-0.6,0.7-0.8,1.1
			c0.1-0.1,0.2-0.1,0.3-0.2C-312.8,796.8-312.2,796.4-311.6,795.9z"/>
	</g>
	<g id="XMLID_426_">
		<path class="st0" d="M-301.3,796.2c-0.2,0-0.4,0-0.5,0c-0.8,0.7-1.6,1.5-2.5,2.2c-0.5,0.5-1.1,0.9-1.7,1.3
			c0.5,0.3,1.2,0.7,1.8,0.7c1.1,0,1.9-0.6,2.6-1.4c0.5-0.6,1-1.4,1-2.2C-300.7,796.4-300.8,796.2-301.3,796.2z"/>
	</g>
	<g id="XMLID_423_">
		<path class="st0" d="M-313.6,768.2c0.1,0,0.3-0.1,0.4-0.1c0.1-0.1,0.2-0.1,0.2-0.2c0.1-0.1,0.1-0.2,0.1-0.4c0-0.1,0-0.3-0.1-0.4
			c-0.1-0.1-0.1-0.2-0.2-0.2c-0.1-0.1-0.2-0.1-0.3-0.1c-0.1,0-0.3,0-0.4,0h-0.8v1.5h0.8C-313.9,768.2-313.8,768.2-313.6,768.2z"/>
	</g>
	<g id="XMLID_420_">
		<path class="st0" d="M-279,823c0,0.1-0.1,0.2-0.1,0.4c-0.2,1.3,0,1.9,0.1,2.1c0.1-0.2,0.3-0.8,0.1-2.1
			C-278.9,823.2-279,823.1-279,823z"/>
	</g>
	<g id="XMLID_417_">
		<path class="st0" d="M-321.8,769.8c0.2-0.2,0.3-0.3,0.4-0.6c0.1-0.2,0.1-0.5,0.1-0.8c0-0.3,0-0.6-0.1-0.8
			c-0.1-0.2-0.2-0.4-0.4-0.6c-0.2-0.2-0.4-0.3-0.6-0.3c-0.2-0.1-0.5-0.1-0.8-0.1h-0.8v3.6h0.8c0.3,0,0.6,0,0.8-0.1
			C-322.2,770.1-321.9,770-321.8,769.8z"/>
	</g>
	<g id="XMLID_414_">
		<polygon class="st0" points="-327.7,766.9 -328.6,769.1 -326.8,769.1 		"/>
	</g>
	<g id="XMLID_411_">
		<path class="st0" d="M-341.4,768.2c0.1,0,0.3-0.1,0.4-0.1c0.1-0.1,0.2-0.1,0.2-0.2c0.1-0.1,0.1-0.2,0.1-0.4c0-0.1,0-0.3-0.1-0.4
			c-0.1-0.1-0.1-0.2-0.2-0.2c-0.1-0.1-0.2-0.1-0.3-0.1c-0.1,0-0.3,0-0.4,0h-0.7v1.6h0.7C-341.7,768.2-341.5,768.2-341.4,768.2z"/>
	</g>
	<g id="XMLID_401_">
		<path class="st0" d="M-271.4,778.3c-1.1,0-2.1,0.4-2.1,0.4v0.2v0.8c0,1.7,1.2,3,2.8,3c0.1,0,0.2,0,0.3,0c1.2-0.2,2.1-1.2,2.1-2.2
			C-268.3,779.4-269.3,778.3-271.4,778.3z"/>
	</g>
	<g id="XMLID_398_">
		<path class="st0" d="M-274.6,795.9c0-0.3-0.1-0.4-0.3-0.4c-0.5,0-0.9,0.3-1.2,0.6c-0.3,0.4-0.5,0.9-0.5,1.4c0,0.4,0,1,0.2,1.4
			C-275.5,798.2-274.6,797.1-274.6,795.9z"/>
	</g>
	<g id="XMLID_395_">
		<path class="st0" d="M-280.3,801.1c1,0,2-0.5,2.8-1.2c-0.4-0.5-0.6-1.2-0.6-1.9c0-0.5,0-1,0.2-1.5c-0.1,0.1-0.3,0.1-0.4,0.2
			c-0.3,0.3-0.6,0.6-1,0.9l0,0c-0.5,0.4-0.9,0.8-1.4,1.2c-0.3,0.4-0.4,0.9-0.4,1.3c0,0.3,0,0.7,0.3,0.9
			C-280.6,801.1-280.4,801.1-280.3,801.1z"/>
	</g>
	<g id="XMLID_294_">
		<g>
			<path class="st0" d="M-204.1,761c0-13.3-4.4-13.8-22.8-13.8h-3.4h-0.8v-0.8V743c0-2.1,0-7.7-1-8.9c-0.4-0.5-2.5-0.8-6.1-0.8
				c-1.4,0-3.1,0-4.8,0.1c-2.4,0.1-5.1,0.1-8.2,0.1c-14.8,0-23.2-5.3-27.8-9.9c-4.5,4.7-12.9,9.9-27.8,9.9c-3.1,0-5.8-0.1-8.2-0.1
				c-1.7,0-3.4-0.1-4.8-0.1c-3.6,0-5.6,0.3-6.1,0.8c-1,1.2-1,6.8-1,8.9v3.3v0.8h-0.8h-3.3c-8.2,0-14.7,0-18.4,1.8
				c-2.2,1.1-4.5,3.4-4.5,12c0,9.8-5.9,16.2-11.3,20c5.4,3.8,11.3,10.2,11.3,20c0,13.3,4.4,13.8,22.8,13.8h3.4h0.8v0.8v3.3
				c0,2.1,0,7.7,1,8.9c0.4,0.5,2.5,0.8,6.1,0.8c1.4,0,3.1,0,4.8-0.1c2.4-0.1,5.1-0.1,8.2-0.1c14.8,0,23.2,5.3,27.8,9.9
				c4.5-4.7,12.9-9.9,27.8-9.9c3.1,0,5.8,0.1,8.2,0.1c1.7,0,3.4,0.1,4.8,0.1c3.6,0,5.6-0.3,6.1-0.8c1-1.2,1-6.8,1-8.9v-3.3v-0.8h0.8
				h3.3c8.2,0,14.7,0,18.4-1.8c2.2-1.1,4.5-3.4,4.5-12c0-9.8,5.9-16.2,11.3-20C-198.1,777.2-204.1,770.8-204.1,761z M-241.5,770.4
				c0.2-0.3,0.5-0.4,0.9-0.1c0.5,0.3,1,0.5,1.6,0.5c0.3,0,0.7-0.1,0.8-0.5c0.1-0.4-0.2-0.6-0.5-0.7c-0.4-0.1-0.9-0.3-1.3-0.4
				c-1-0.3-1.3-0.9-1.3-1.6c0-0.8,0.6-1.4,1.5-1.6c0.8-0.2,1.5,0,2.2,0.4c0.4,0.2,0.5,0.5,0.4,0.8c-0.1,0.3-0.5,0.4-0.9,0.2
				c-0.3-0.1-0.6-0.3-0.9-0.3c-0.2,0-0.5,0-0.8,0.1c-0.4,0.2-0.4,0.7,0,0.9c0.3,0.1,0.6,0.2,0.9,0.3c0.4,0.1,0.7,0.2,1.1,0.4
				c0.6,0.2,0.9,0.7,0.9,1.3c0,0.7-0.3,1.2-0.9,1.5c-0.4,0.2-0.8,0.2-1.2,0.3c-0.7-0.1-1.4-0.3-2-0.7
				C-241.5,770.9-241.6,770.6-241.5,770.4z M-244.5,765.9c1.4,0,3,1,3,2.9c0,2-1.6,3-3.1,3c-1.6,0-3-1.1-3-2.9
				C-247.6,767-246.2,765.8-244.5,765.9z M-252.1,765c0.1-0.5,0.4-0.8,0.9-0.8c0.3,0.1,0.6,0.2,0.9,0.3c0.3,0.1,0.5,0.1,0.7-0.2
				c0.1-0.1,0.3-0.1,0.4-0.1c0,0.2,0.2,0.3,0.1,0.5c-0.2,0.7-0.6,0.9-1.3,0.7c-0.2,0-0.3-0.1-0.5-0.2c-0.3-0.1-0.5-0.1-0.8,0.2
				c-0.1,0.1-0.3,0.1-0.5,0.1C-252,765.3-252.1,765.1-252.1,765z M-252.7,766c0.4-0.1,0.7-0.1,1,0.3c0.7,1,1.5,1.9,2.2,2.9
				c0.1,0.1,0.2,0.2,0.2,0.3c0,0,0.1,0,0.1,0c0-0.1,0-0.3,0-0.4c0-0.8,0-1.6,0-2.4c0-0.5,0.2-0.7,0.6-0.7c0.4,0,0.6,0.2,0.6,0.7
				c0,1.4,0,2.8,0,4.3c0,0.3,0,0.7-0.4,0.8c-0.4,0.1-0.7,0-0.9-0.4c-0.7-1-1.4-1.9-2.2-2.8c-0.1-0.1-0.2-0.3-0.4-0.3
				c0,0.1,0,0.3,0,0.4c0,0.8,0,1.6,0,2.4c0,0.5-0.2,0.8-0.6,0.8c-0.4,0-0.6-0.2-0.6-0.7c0-1.4,0-2.9,0-4.3
				C-253.1,766.4-253.1,766.1-252.7,766z M-258.9,770.8c0.6-1.5,1.3-2.9,2-4.4c0.2-0.3,0.4-0.6,0.8-0.6c0.4,0,0.6,0.2,0.8,0.6
				c0.6,1.5,1.3,2.9,1.9,4.4c0.2,0.4,0.1,0.7-0.2,0.8c-0.3,0.1-0.7,0-0.8-0.4c-0.2-0.8-0.7-1.1-1.5-0.9c-0.1,0-0.1,0-0.2,0
				s-0.1,0-0.2,0c-0.8-0.1-1.3,0.1-1.5,0.9c-0.1,0.4-0.5,0.5-0.8,0.4C-259,771.6-259.1,771.2-258.9,770.8z M-295.4,740.6
				c1.2-2.1,3.2-3.7,5.5-4.3c2.3-0.6,4.7-0.2,6.9,1c1.5-0.8,3.1-1.2,4.6-1.2c1.6,0,3.1,0.4,4.8,1.2c1.8-1,3.8-1.4,5.5-1.2
				c1.9,0.2,3.6,1,5,2.4c1.1,1.1,1.9,2.5,2.3,4c0.6,2.1,0.5,4.2-0.4,6.1c-0.8,1.8-2.3,3.2-4.2,4.3l0.2,7.2h-2.6l-0.2-8.5
				c0-0.2,0.1-0.4,0.3-0.5c2.6-1,5.1-3.5,4.3-7.1c-0.5-2.6-2.7-5.2-6-5.2c-1.4,0-2.8,0.5-4.3,1.4c-0.2,0.1-0.4,0.1-0.6,0
				c-1.5-0.9-2.9-1.3-4.3-1.3c-1.4,0-2.7,0.4-4.1,1.3c-0.2,0.1-0.4,0.1-0.6,0c-1.4-0.9-2.8-1.4-4.3-1.4c-2.3,0-4.3,1.2-5.5,3.1
				c-1,1.8-1.1,3.9,0,5.8c1.8,1.6,3.7,2.5,5.6,2.5c3.6,0,6.4-2.9,6.9-7.3c0-0.3,0.3-0.5,0.5-0.5c0.3,0,0.5,0.2,0.5,0.4
				c0.6,3.2,0.2,5.7-1.3,7.6c0.3,0,0.5,0,0.8,0c2.7,0,6.1-1.3,7.3-7.5c0-0.3,0.3-0.5,0.6-0.4c0.3,0,0.5,0.2,0.5,0.5
				c0.1,3.8-0.8,6.8-2.6,8.8c-1.3,1.4-3,2.1-4.9,2.1c-1.4,0-2.8-0.4-4.1-1.1c-2,1.4-4.1,1.5-6.2,0.3l-0.2,7.1h-2.6l0.2-7.5
				c-2.1-1.6-3.6-3.5-4.2-5.6C-296.7,744.8-296.5,742.5-295.4,740.6z M-282.4,785.2c0,2.4-1.8,4.2-4.1,4.2c-2.3,0-4.1-1.8-4.1-4.2
				c0-4.8,0-9.6,0-14.4c0-0.2,0-0.4,0-0.6c-0.8,0-1.5,0.1-2.2,0c-1.6-0.3-2.9-1.7-3-3.3c-0.1-1.8,0.8-3.4,2.5-3.9
				c1.1-0.4,2.2-0.7,3.3-1c0.1,0,4.2-1,6,0c2.1,0.9,1.6,3.1,1.6,3.5C-282.4,772.1-282.4,778.7-282.4,785.2z M-307.4,766.1l2.1,4.8
				h-0.8l-0.5-1.2h-2.3l-0.5,1.2h-0.7l2.1-4.8H-307.4z M-310.7,764.8h0.8l-0.9,1h-0.5L-310.7,764.8z M-310.7,766.1v4.8h-0.7v-4.8
				H-310.7z M-315.5,766.1h1.5c0.2,0,0.4,0,0.7,0.1c0.2,0,0.4,0.1,0.5,0.2c0.2,0.1,0.3,0.2,0.4,0.4c0.1,0.2,0.1,0.4,0.1,0.6
				c0,0.4-0.1,0.6-0.3,0.9c-0.2,0.2-0.5,0.4-0.8,0.4l1.3,2.2h-0.8l-1.2-2.1h-0.7v2.1h-0.7V766.1z M-319.6,766.1h3.1v0.6h-2.4v1.4
				h2.3v0.6h-2.3v1.6h2.5v0.6h-3.2V766.1z M-315.3,777.9c1,0.2,1.7,0.4,2.5,0.6c0.5,0.1,1.1,0.2,1.7,0.3l1,0.2l-0.9,0.5
				c-1.1,0.6-2,1-2.8,1c-0.1,0-0.2,0-0.3,0c-0.5,0-1-0.1-1.4-0.2l-15.3-3.9c-0.8-0.2-1.4-0.3-2.1-0.4c-0.6-0.1-1.1-0.1-1.6-0.1
				c-2.2,0-4.5,0.7-6.9,2.1c-2.6,1.5-4,3.3-4,5.2c0,1.1,0.7,2.1,2.1,3.1c1.4,1,3.1,1.5,4.8,1.5c1.3,0,2.9-0.5,5-1.5l0.1,0l0,0
				c0.4-0.1,0.8,0.2,0.9,0.6l0.1,0.3l-0.3,0.1c-1.6,0.7-3,1.2-4.3,1.6c-1.3,0.4-2.4,0.5-3.5,0.5c-2.1,0-3.8-0.5-5-1.5
				c-1.3-1-1.9-2.4-1.9-4.1c0-2.4,1.5-4.6,4.5-6.6c2.9-1.9,6.2-2.9,9.8-2.9c1.3,0,2.7,0.1,4.4,0.4c1.8,0.3,3.6,0.7,5.9,1.3
				C-320.3,776.6-317.8,777.2-315.3,777.9z M-324.7,766.1h1.6c0.3,0,0.6,0,0.9,0.1c0.3,0.1,0.6,0.2,0.8,0.4c0.2,0.2,0.4,0.4,0.6,0.7
				c0.2,0.3,0.2,0.7,0.2,1.1c0,0.4-0.1,0.8-0.2,1.1c-0.2,0.3-0.4,0.5-0.6,0.7c-0.2,0.2-0.5,0.3-0.8,0.4c-0.3,0.1-0.6,0.1-0.9,0.1
				h-1.6V766.1z M-328,766.1h0.6l2.1,4.8h-0.8l-0.5-1.2h-2.3l-0.5,1.2h-0.7L-328,766.1z M-334.8,766.1h0.9l2.5,3.8h0v-3.8h0.7v4.8
				h-0.8l-2.5-3.9h0v3.9h-0.7V766.1z M-337.4,766.1l2.1,4.8h-0.8l-0.5-1.2h-2.3l-0.5,1.2h-0.7l2.1-4.8H-337.4z M-343.2,766.1h1.5
				c0.3,0,0.5,0,0.7,0.1c0.2,0.1,0.4,0.1,0.5,0.2c0.1,0.1,0.3,0.2,0.3,0.4c0.1,0.2,0.1,0.4,0.1,0.6c0,0.2,0,0.4-0.1,0.6
				s-0.2,0.3-0.4,0.4c-0.2,0.1-0.3,0.2-0.6,0.2c-0.2,0.1-0.4,0.1-0.7,0.1h-0.8v2.1h-0.7V766.1z M-345.6,753.5c1,0,1.9,0.8,1.9,1.9
				c0,1-0.8,1.9-1.9,1.9c-1,0-1.9-0.8-1.9-1.9C-347.5,754.3-346.7,753.5-345.6,753.5z M-345.6,808.5c-1,0-1.9-0.8-1.9-1.9
				c0-1,0.8-1.9,1.9-1.9c1,0,1.9,0.8,1.9,1.9C-343.8,807.7-344.6,808.5-345.6,808.5z M-335.4,800.2c-0.6,0.6-1.1,1.1-1.6,1.6
				c-0.7,0.7-1.7,1.4-2.5,1.4c-0.8,0-1.4-0.5-1.5-1.3l0-0.1c0-0.6,0.2-1,0.5-1.2c0.1-0.1,0.3-0.1,0.4-0.1c0.1,0,0.2,0,0.4,0l0,0
				c0,0,0,0,0.1,0c0.9-0.3,2-1.2,3.4-2.5c0.9-1,1.8-2,2.5-2.8c0.7-0.9,1.5-1.8,2.3-2.9c-0.5,0.1-0.9,0.1-1.2,0.2
				c-0.8,0.1-1.6,0.2-2.4,0.3c-0.5,0.1-1,0.1-1.6,0.2l-0.4,0l-0.2-0.3c-0.2-0.3-0.3-0.6-0.3-0.9c0-0.3,0.1-0.6,0.3-0.9
				c0.3-0.5,1-0.7,1.8-0.7c0.3,0,0.5,0,0.8,0c0.5,0,1-0.1,1.4-0.1c1.3-0.2,2.7-0.3,4-0.5c0.9-1.3,1.8-2.6,3-4.3
				c0.7-0.9,1.1-1.7,1.5-2.4c0.4-0.8,0.9-1.6,1.6-2.6l0.1-0.1l1.3-0.6l1.7,0.5l-0.5,0.6c-0.3,0.4-0.6,0.8-0.9,1.2
				c-0.5,0.7-1.1,1.4-1.5,2c-1.3,1.8-2.6,3.6-3.8,5.3c0.7-0.1,1.3-0.1,1.9-0.2c0.6-0.1,1.4-0.1,2.1-0.1c0.3,0,0.6,0.1,0.8,0.4
				c0.2,0.2,0.2,0.5,0.1,0.8l0,0c-0.3,0.8-1,1.3-2,1.4l-4.9,0.5c-1.6,2.2-3.2,4.2-4.7,6C-334.2,798.9-334.8,799.6-335.4,800.2z
				 M-294.5,799.8c0-0.2,0-0.4,0.1-0.6c-0.2,0.1-0.3,0.3-0.5,0.4c-0.2,0.2-0.4,0.3-0.7,0.5l0,0c-2.5,1.6-5.2,2.6-8.2,2.6
				c-0.8,0-1.6-0.2-2.3-0.6c-0.2-0.1-0.4-0.3-0.5-0.4c-0.3-0.3-0.5-0.5-0.8-0.8l-0.1-0.1c-0.6,0.3-1.2,0.6-1.8,0.9
				c-1.3,0.6-2.7,1.1-4.1,1.1c-1.5,0-2.4-0.6-2.7-1.9c-1.8,1.1-3.8,2-5.8,2c-0.6,0-1.2-0.3-1.6-0.7c-0.5-0.5-0.7-1-0.7-1.7
				c0-0.8,0.6-1.6,1.1-2.2l0,0l0,0c0.4-0.5,0.9-1,1.3-1.5c-0.3,0-0.5,0.1-0.8,0.1c-0.5,0.1-1,0.1-1.4,0.1h0c-1.1,1-2.3,2-3.6,2.9
				c-0.9,0.7-1.9,1.3-3,1.8l-0.1,0h-0.1c-0.3,0-0.8,0-0.9-0.4c0-0.1,0-0.1,0-0.1c0-0.3,0.2-0.7,0.4-0.9l0-0.1l0.1,0
				c0.4-0.2,0.8-0.4,1.1-0.6c0.5-0.3,0.9-0.6,1.4-0.9c1.1-0.8,2.2-1.6,3.3-2.4c-0.1-0.2-0.1-0.3-0.1-0.5c0-0.8,0.8-1.8,1.3-2.3
				c0.5-0.6,1.4-1.5,2.2-1.5c0.5,0,1,0.2,1,0.8c0,0.6-0.3,1.1-0.6,1.5c0.1,0,0.2,0,0.3-0.1c0.2,0,0.5-0.1,0.8-0.1
				c0.4,0,0.9,0.1,1.2,0.5c0.1,0.2,0.2,0.4,0.2,0.6c0,0.9-1,2-1.6,2.6c-0.4,0.4-1.4,1.4-1.4,2c0,0.3,0.1,0.5,0.3,0.8
				c0.2,0.2,0.5,0.3,0.8,0.3c1.5,0,3.4-1,4.9-2c0.2-1.3,1.1-2.5,1.9-3.4c0.8-1,2.1-2.2,3.5-2.2c0.4,0,0.7,0.2,1,0.4
				c0.3,0.3,0.5,0.6,0.5,1c0,0.6-0.3,1.1-0.7,1.5c-0.4,0.4-0.9,0.8-1.3,1.2c-0.8,0.7-1.7,1.3-2.6,1.8c0,0.5,0.2,0.8,0.6,1.1l0,0l0,0
				c0.3,0.2,0.7,0.3,1.1,0.3c0.8,0,1.8-0.4,2.8-0.9c0.2-0.1,0.4-0.2,0.5-0.3c0.8-0.4,1.5-0.9,2-1.3c0.2-0.1,0.4-0.3,0.6-0.4
				c0.3-0.2,0.7-0.5,1-0.8c1.1-0.8,2.1-1.7,3.2-2.5l0,0l0,0c0.1-0.1,0.2-0.1,0.3-0.1c0.4-0.2,0.9-0.3,1.4-0.3c1.3,0,2,0.7,2,2
				c0,1-0.6,2-1.1,2.8c-0.3,0.4-0.7,0.9-1.1,1.4c1.6-0.4,3.4-1.4,4.6-2.2l0,0l0,0c0.7-0.4,1.3-0.9,2-1.4c0.5-0.4,1.1-0.8,1.6-1.2
				c0.1-0.1,0.2-0.2,0.3-0.3c1.6-1.5,3.5-2.6,5.7-2.6c0.9,0,1.5,0.4,1.5,1.4c0,1.1-0.9,1.9-1.7,2.4c-0.7,0.5-1.7,1-2.6,1
				c-0.4,0-0.9-0.1-1.1-0.5c0-0.1-0.1-0.2-0.1-0.3c0-0.9,0.5-1.5,1.4-1.5c0.2,0,0.4,0.1,0.6,0.2c0.2,0.1,0.4,0.1,0.5,0.1
				c0.3,0,0.5-0.3,0.7-0.5c0.2-0.2,0.4-0.5,0.4-0.8c-0.1-0.1-0.5-0.1-0.6-0.1c-1.3,0-2.4,0.9-3.3,1.7c-0.7,0.7-1.7,1.9-1.7,3
				c0,0.6,0.3,1.1,0.7,1.5c0.6,0.5,1.3,0.7,2,0.7c1.7,0,3.6-0.8,5.1-1.7c0.7-0.4,1.4-0.9,2.1-1.3c0.2-0.2,0.5-0.3,0.7-0.5
				c0.4-0.5,0.9-0.9,1.3-1.3l0,0c1.3-1.1,3.1-2.4,4.8-2.4c1.3,0,2.2,0.7,2.2,2.1c0,1.6-0.9,2.9-2,3.9c0.2,0.1,0.4,0.2,0.7,0.2
				c1,0,3-1.4,3.8-2c1.4-1,2.7-2.1,3.9-3.4c0.1-0.2,0.4-0.2,0.6-0.1c0.2,0.1,0.4,0.3,0.4,0.5c0,0.2-0.1,0.5-0.2,0.7
				c-0.5,0.6-1.1,1.2-1.7,1.7c-0.7,0.7-1.5,1.3-2.3,1.9c-1.1,0.8-3.1,2.2-4.5,2.2c-0.6,0-1.2-0.2-1.7-0.6c-0.4,0.4-1.1,0.8-1.5,1.1
				l0,0c-0.9,0.5-2,0.9-3,0.9c-1.2,0-2.2-0.5-2.2-1.8c0-0.2,0-0.4,0-0.6c-2.3,1.5-5,2.6-7.7,2.6c-1,0-1.9-0.3-2.6-1
				C-294.2,801.6-294.5,800.8-294.5,799.8z M-268.8,822.9c-0.9-0.5-1.4-0.9-1.8-1.2c0.1,2.2-2.3,4.2-4.3,3.6
				c-2.1-0.6-2.5-2.6-2.1-3.7c0.2-0.4,0.5-0.9,0.9-1.2c0.8-0.5,1.6-0.3,1.7,0c0.1,0.3-0.8,0.4-1.1,1.2c-0.3,0.8,0.2,1.9,1.4,1.9
				c0,0,0,0,0.1,0c0.1,0,0.2,0,0.3,0c0.8-0.1,1.6-0.9,1.7-2c0.1-1.4-1.2-2.8-2.7-2.9c-0.9-0.1-1.6,0.1-2.1,0.4
				c-0.5,0.3-1.4,1.1-1.9,2.6c0.2,0.5,0.3,1,0.4,1.6c0.3,1.4,0.1,2.4-0.4,2.7c-0.1,0.1-0.2,0.1-0.3,0.1c-0.1,0-0.2,0-0.3-0.1
				c-0.4-0.3-0.6-1.4-0.4-2.7c0.1-0.6,0.3-1.2,0.4-1.6c-0.5-1.5-1.4-2.2-1.9-2.6c-0.6-0.3-1.3-0.5-2.1-0.4c-1.5,0.1-2.8,1.4-2.7,2.9
				c0.1,1.1,0.8,1.9,1.7,2c0.1,0,0.2,0,0.3,0c0,0,0,0,0.1,0c1.2,0,1.6-1,1.4-1.9c-0.3-0.8-1.2-1-1.1-1.2c0.1-0.3,1-0.5,1.7,0
				c0.4,0.3,0.7,0.8,0.9,1.2c0.4,1.1,0,3.1-2.1,3.7c-2,0.6-4.5-1.4-4.3-3.6c-0.4,0.3-0.9,0.7-1.8,1.2c-1.8,1-2.8,0-2.8-0.8
				c0.1-0.8,0.1-0.3,1.8-0.4c1.7,0,2.8-1.3,3.6-2.3l0,0c0.8-1,2.2-1.6,3.4-1.6c2.8,0,4.1,2.6,4.3,2.9c0.2-0.3,1.5-2.9,4.3-2.9
				c1.2,0,2.5,0.6,3.4,1.6l0,0c0.8,1,1.9,2.2,3.6,2.3c1.7,0,1.7-0.4,1.8,0.4C-265.9,822.9-267,823.9-268.8,822.9z M-270.7,789.5
				c-5.9,0-9.7-3.2-10.6-7.6c-0.2-0.7-0.2-1.5-0.2-2.2v-8.1c0-2.1,0.1-4,0.7-5.6c0.4-0.9,1.6-1.8,2.7-1.8c6.2,0,5.4-1.8,8.8-2.4
				c5-0.6,7.5,2.8,8,4.8c0.1,0.5,0.3,1,0.3,1.4c0,2.1-1.2,3.4-3.9,3.4c-1.7,0-2.5-0.9-3.4-1.7c-0.6-0.5-1.3-0.9-2.4-0.9
				c-1.8,0-2.8,1.2-2.8,2.8v0.6c0,0,1.4-0.4,3.5-0.4c5.2,0,8.5,2.6,9.5,6.3c0.2,0.8,0.3,1.6,0.3,2.4c0,1-0.1,2-0.4,2.9
				C-261.7,787.1-265.1,789.5-270.7,789.5z M-252.7,795.5c-1.2,1.6-2.6,3.1-4.3,4.6c-0.4,0.3-0.7,0.6-1,0.9
				c-0.3,0.3-0.6,0.5-0.8,0.6c-0.4,0.3-0.9,0.6-1.4,0.6c-0.7,0-1.1-0.5-1.1-1.3c0-0.3,0.1-0.6,0.3-1c0.3-0.5,0.7-0.6,1-0.6
				c0.3,0,0.5,0.1,0.7,0.2c0.1,0,0.2-0.1,0.3-0.2c0.4-0.3,0.7-0.7,1.1-1c0.6-0.6,1.1-1.2,1.6-1.7c0.6-0.7,1.3-1.5,2.1-2.4
				c1.3-1.6,2.4-2.9,3.5-4.3c0.3-0.4,0.7-0.9,1-1.4c0-0.1,0.1-0.1,0.1-0.2c-0.6-0.1-1.2-0.3-1.8-0.4c-0.8-0.2-1.5-0.4-2.1-0.7
				c-0.6-0.2-0.9-0.7-0.9-1.3c0-0.2,0-0.4,0.1-0.5c0.2-0.3,0.6-0.5,1.1-0.5c0.1,0,0.1,0,0.2,0c0.3,0,0.6,0.1,0.9,0.1
				c0.5,0.1,1,0.2,1.4,0.4c0.7,0.2,1.2,0.3,1.7,0.4c0.2,0.1,0.5,0.1,0.8,0.2c2.1-2.9,4.5-5.6,7.1-7.8c4-3.5,7.8-5.2,11.2-5.2
				c1.5,0,2.8,0.3,3.7,1c1,0.7,1.5,1.6,1.5,2.8c0,1.8-1.4,3.8-4.2,6.1c-1.9,1.6-4.4,2.9-7.5,4.1c-3.1,1.1-5.8,1.7-8.3,1.7
				c-0.7,0-1.3,0-1.8,0c-0.3,0-0.6,0-0.9,0c-0.6,0.9-1.3,1.9-2.1,3C-250.7,792.8-251.6,794.1-252.7,795.5z M-217,798.9
				c-1.7,1.2-4,2.4-6.1,2.4c-1.7,0-2.5-1-2.5-2.6c0-0.4,0-0.8,0.1-1.1c0-0.2,0.1-0.5,0.1-0.7c-1.8,1-3.6,2.1-5.3,3.2
				c-0.6,0.4-1.1,0.7-1.7,1.1c-0.2,0.1-0.3,0.2-0.5,0.3c-0.1,0.1-0.2,0.1-0.4,0.1c-0.2,0-0.4-0.1-0.5-0.2c-0.2-0.1-0.4-0.3-0.4-0.5
				c0-0.3,0.2-0.8,0.4-1.1c0.3-0.6,0.7-1.1,1.1-1.7c0.4-0.5,0.8-1.1,1.1-1.6c-0.4,0.3-0.9,0.7-1.3,1c-0.7,0.6-1.4,1.1-2.2,1.6
				c-1.8,1.2-4.2,2.7-6.5,2.7c-0.5,0-0.9-0.1-1.3-0.4c-0.7-0.5-1-1.5-1.1-2.4c-0.7,0.5-1.4,0.9-2.2,1.3c-0.8,0.4-2,0.9-2.9,0.9
				c-0.5,0-1.1-0.1-1.5-0.4c-0.5-0.3-0.8-0.6-0.8-1.2c0-1.7,2-3.4,3.2-4.3c1.6-1.2,3.6-2.5,5.6-2.5c0.6,0,1.4,0.1,1.7,0.6
				c0.1,0.1,0.1,0.2,0.1,0.4c0,0.5-0.1,0.9-0.4,1.2c0,0,0,0,0.1,0c0.5,0,0.8,0.3,0.8,0.7c0,0.4-0.5,1.2-0.7,1.6
				c-0.2,0.3-0.6,1.1-0.6,1.4c0,0.7,0.3,1.1,1.1,1.1c1.5,0,4-1.6,5.3-2.5l0,0l0,0c0.2-0.1,0.4-0.3,0.7-0.5c0.4-0.3,0.7-0.5,1.1-0.8
				c1.1-0.8,2.2-1.6,3.3-2.5l0,0l0,0c0.1-0.1,0.2-0.1,0.3-0.1c0.2-0.1,0.3-0.1,0.5-0.1c0.9,0,1.6,0.3,1.6,1.3c0,0.3-0.2,0.6-0.4,0.8
				c-0.3,0.4-0.6,0.9-0.9,1.3c-0.1,0.1-0.1,0.2-0.2,0.3c0.5-0.3,0.9-0.6,1.4-0.9c0.9-0.5,1.7-1.1,2.7-1.5c0.9-0.5,2.5-1.3,3.5-1.3
				c0.1,0,0.2,0,0.3,0.1c0.3,0.2,0.3,0.5,0.3,0.7c0,0.1-0.1,0.2-0.1,0.3c-0.1,0.1-0.1,0.2-0.2,0.3c-0.3,0.3-0.6,0.7-0.9,1
				c-0.6,0.6-1.1,1.5-1.1,2.3c0,0.2,0,0.4,0.2,0.6c0.3,0.4,1,0.5,1.4,0.5c1.3,0,3.5-1.5,4.6-2.2l0,0l0,0c0.2-0.1,0.3-0.2,0.5-0.4
				c0.3-0.2,0.6-0.5,0.9-0.7c1.1-0.8,2.1-1.6,3.2-2.4l0,0l0,0c0.2-0.1,0.3-0.1,0.5-0.1c0.2,0.1,0.4,0.3,0.4,0.5
				c0,0.2-0.1,0.5-0.3,0.6l0,0l0,0c-1,0.9-2.1,1.7-3.1,2.6C-215.7,797.9-216.3,798.5-217,798.9z M-212.4,808.5c-1,0-1.9-0.8-1.9-1.9
				c0-1,0.8-1.9,1.9-1.9c1,0,1.9,0.8,1.9,1.9C-210.5,807.7-211.3,808.5-212.4,808.5z M-212.4,757.2c-1,0-1.9-0.8-1.9-1.9
				c0-1,0.8-1.9,1.9-1.9c1,0,1.9,0.8,1.9,1.9C-210.5,756.4-211.3,757.2-212.4,757.2z"/>
		</g>
	</g>
	<g id="XMLID_284_">
		<path class="st0" d="M-242.7,795.6l0-0.3c0,0,0-0.1,0-0.1c-0.1-0.1-0.1-0.2-0.2-0.3c-0.1-0.3-0.3-0.4-0.6-0.4
			c-1.2,0-2.4,0.8-3.2,1.5c-0.7,0.6-1.8,1.7-1.8,2.6c0,0.1,0,0.4,0.1,0.5c0,0,0.1,0,0.1,0c1.5,0,2.9-0.7,4.1-1.5
			c0.2-0.2,0.5-0.4,0.7-0.6c0.3-0.3,0.6-0.7,1-1c0.1-0.1,0.3-0.3,0.4-0.4c-0.1,0-0.2,0-0.3,0L-242.7,795.6z"/>
	</g>
	<g id="XMLID_281_">
		<path class="st0" d="M-244.6,770.7c1,0,1.8-0.8,1.8-1.9c0-1.1-0.8-1.9-1.8-1.9c-1,0-1.7,0.8-1.8,1.9
			C-246.4,769.9-245.6,770.7-244.6,770.7z"/>
	</g>
	<g id="XMLID_209_">
		<g>
			<path class="st0" d="M-199.9,761c0-18-9.3-18-27.1-18c0-16.5-2.8-13.7-24.3-13.7c-18.4,0-25.5-8.7-27.8-12.6
				c-2.2,3.8-9.3,12.6-27.8,12.6c-21.5,0-24.3-2.8-24.3,13.7c-17.8,0-27.1,0-27.1,18c0,14.3-15.8,20-15.8,20s15.8,5.7,15.8,20
				c0,18,9.3,18,27.1,18c0,16.5,2.8,13.7,24.3,13.7c18.4,0,25.5,8.7,27.8,12.6c2.2-3.8,9.3-12.6,27.8-12.6
				c21.5,0,24.3,2.8,24.3-13.7c17.8,0,27.1,0,27.1-18c0-14.3,15.8-20,15.8-20S-199.9,775.3-199.9,761z M-203.2,801
				c0,9-2.5,11.5-5,12.7c-3.8,1.9-10.4,1.9-18.7,1.9h-3.3v3.3c0,3.9-0.1,8.1-1.2,9.4c-0.7,0.8-2.6,1.1-6.7,1.1c-1.4,0-3,0-4.8-0.1
				c-2.4-0.1-5.1-0.1-8.2-0.1c-15.3,0-23.6,5.7-27.8,10.3c-4.2-4.6-12.5-10.3-27.8-10.3c-3.1,0-5.8,0.1-8.2,0.1
				c-1.8,0-3.4,0.1-4.8,0.1c-4.1,0-6-0.3-6.7-1.1c-1.1-1.3-1.2-5.5-1.2-9.4v-3.3h-3.4c-18.8,0-23.7-0.6-23.7-14.6
				c0-10.2-6.7-16.6-12-20c5.2-3.4,12-9.8,12-20c0-9,2.5-11.5,5-12.7c3.8-1.9,10.4-1.9,18.7-1.9h3.3V743c0-3.9,0.1-8.1,1.2-9.4
				c0.7-0.8,2.6-1.1,6.7-1.1c1.4,0,3,0,4.8,0.1c2.4,0.1,5.1,0.1,8.2,0.1c15.3,0,23.6-5.7,27.8-10.3c4.2,4.6,12.5,10.3,27.8,10.3
				c3.1,0,5.8-0.1,8.2-0.1c1.8,0,3.4-0.1,4.8-0.1c4.1,0,6,0.3,6.7,1.1c1.1,1.3,1.2,5.5,1.2,9.4v3.3h3.4c18.8,0,23.7,0.6,23.7,14.6
				c0,10.2,6.7,16.6,12,20C-196.5,784.4-203.2,790.8-203.2,801z"/>
		</g>
	</g>
	<g id="XMLID_67_">
		<path class="st0" d="M-256.2,767.4c0,0-0.1,0-0.1,0c-0.3,0.6-0.5,1.2-0.8,1.9c0.6,0,1.1,0,1.7,0
			C-255.6,768.6-255.9,768-256.2,767.4z"/>
	</g>
	<g id="XMLID_47_">
		<polygon class="st0" points="-307.7,766.9 -308.6,769.1 -306.8,769.1 		"/>
	</g>
	<g id="XMLID_41_">
		<path class="st0" d="M-237.2,785c2.8-0.9,5-2,6.9-3.3c1.9-1.4,2.9-2.8,3-4.1c0-0.6-0.3-1.1-0.9-1.5c-0.7-0.5-1.6-0.7-2.7-0.7
			c-2.4,0-4.9,1-7.5,2.9c-1.4,1-2.7,2.2-4.1,3.7c-1.2,1.3-2.4,2.7-3.6,4.3h1.8C-242.3,786.3-239.9,785.9-237.2,785z"/>
	</g>
</g>
</svg>
