<?xml version="1.0" encoding="utf-8"?>
<!-- Generator: Adobe Illustrator 19.0.0, SVG Export Plug-In . SVG Version: 6.00 Build 0)  -->
<svg version="1.1" id="Capa_1" xmlns="http://www.w3.org/2000/svg" xmlns:xlink="http://www.w3.org/1999/xlink" x="0px" y="0px"
	 viewBox="-329 676 300 210" style="enable-background:new -329 676 300 210;" xml:space="preserve">
<style type="text/css">
	.st0{fill:#342B1F;}
	.st1{fill:#FFFFFF;}
</style>
<g id="XMLID_390_">
	<g id="XMLID_518_">
		<g id="XMLID_556_">
			<path class="st0" d="M-58.1,750.4c0-27.5-14.2-27.4-41.3-27.4c0-25.2-4.3-20.9-37.1-20.9c-28.1,0-39-13.3-42.4-19.2
				c-3.4,5.9-14.3,19.2-42.4,19.2c-32.8,0-37.1-4.3-37.1,20.9c-27.1,0-41.3,0-41.3,27.4c0,21.8-24.2,30.6-24.2,30.6
				s24.2,8.8,24.2,30.6c0,27.5,14.2,27.4,41.3,27.4c0,25.2,4.3,20.9,37.1,20.9c28.1,0,39,13.3,42.4,19.2
				c3.4-5.9,14.3-19.2,42.4-19.2c32.8,0,37.1,4.3,37.1-20.9c27.1,0,41.3,0,41.3-27.4C-58.1,789.8-34,781-34,781
				S-58.1,772.2-58.1,750.4z"/>
		</g>
		<path id="XMLID_553_" class="st1" d="M-179,693.3c6.9,7.1,19.8,15.2,42.4,15.2c4.8,0,8.9-0.1,12.5-0.2c2.7-0.1,5.2-0.1,7.4-0.1
			c5.5,0,8.6,0.4,9.3,1.2c1.6,1.9,1.6,10.4,1.6,13.6v5.1v1.3h1.3h5.2c28.2,0,34.9,0.8,34.9,21.1c0,15,9,24.8,17.3,30.6
			c-8.2,5.8-17.3,15.5-17.3,30.6c0,13.1-3.5,16.6-6.9,18.3c-5.6,2.8-15.5,2.8-28,2.8h-5.1h-1.3v1.3v5.1c0,3.2,0,11.7-1.6,13.6
			c-0.7,0.8-3.8,1.2-9.3,1.2c-2.2,0-4.7-0.1-7.4-0.1c-3.6-0.1-7.8-0.2-12.5-0.2c-22.6,0-35.5,8-42.4,15.2
			c-6.9-7.1-19.8-15.2-42.4-15.2c-4.8,0-8.9,0.1-12.5,0.2c-2.7,0.1-5.2,0.1-7.4,0.1c-5.5,0-8.6-0.4-9.3-1.2
			c-1.6-1.9-1.6-10.4-1.6-13.6v-5.1v-1.3h-1.3h-5.2c-28.2,0-34.9-0.8-34.9-21.1c0-15-9-24.8-17.3-30.6c8.2-5.8,17.3-15.5,17.3-30.6
			c0-13.1,3.5-16.6,6.9-18.3c5.6-2.8,15.5-2.8,28-2.8h5.1h1.3v-1.3V723c0-3.2,0-11.7,1.6-13.6c0.7-0.8,3.8-1.2,9.3-1.2
			c2.2,0,4.7,0.1,7.4,0.1c3.6,0.1,7.8,0.2,12.5,0.2C-198.8,708.4-185.9,700.4-179,693.3L-179,693.3z M-179,691.4
			c-6.4,7.1-19,15.8-42.4,15.8c-4.7,0-8.9-0.1-12.5-0.2c-2.8-0.1-5.2-0.1-7.4-0.1c-6.3,0-9.2,0.5-10.2,1.7c-1.6,2-1.9,8.4-1.9,14.4
			v5.1h-5.1c-12.7,0-22.7,0-28.6,2.9c-3.8,1.9-7.6,5.6-7.6,19.4c0,15.6-10.3,25.4-18.3,30.6c8,5.2,18.3,14.9,18.3,30.6
			c0,21.5,7.5,22.3,36.2,22.3h5.2v5.1c0,6,0.2,12.4,1.9,14.4c1,1.2,4,1.7,10.2,1.7c2.2,0,4.6-0.1,7.4-0.1c3.6-0.1,7.8-0.2,12.5-0.2
			c23.4,0,36,8.7,42.4,15.8c6.4-7.1,19-15.8,42.4-15.8c4.7,0,8.9,0.1,12.5,0.2c2.8,0.1,5.2,0.1,7.4,0.1c6.3,0,9.2-0.5,10.2-1.7
			c1.6-2,1.9-8.4,1.9-14.4v-5.1h5.1c12.7,0,22.7,0,28.6-2.9c3.8-1.9,7.6-5.6,7.6-19.4c0-15.6,10.3-25.4,18.3-30.6
			c-8-5.2-18.3-14.9-18.3-30.6c0-21.5-7.5-22.3-36.2-22.3h-5.2V723c0-6-0.2-12.4-1.9-14.4c-1-1.2-4-1.7-10.2-1.7
			c-2.2,0-4.6,0.1-7.4,0.1c-3.6,0.1-7.8,0.2-12.5,0.2C-160,707.1-172.6,698.5-179,691.4L-179,691.4z"/>
		<path id="XMLID_550_" class="st1" d="M-159.1,843.8c-0.1-1.2-0.2-0.5-2.7-0.6c-2.5-0.1-4.2-2-5.5-3.5l0,0
			c-1.3-1.6-3.3-2.5-5.1-2.5c-4.3,0-6.3,4-6.6,4.4l0,0l0,0c-0.2-0.5-2.3-4.4-6.6-4.4c-1.8,0-3.9,0.9-5.1,2.5l0,0
			c-1.2,1.5-2.9,3.4-5.5,3.5c-2.5,0.1-2.6-0.6-2.7,0.6c-0.1,1.2,1.5,2.7,4.2,1.3c1.4-0.8,2.2-1.3,2.7-1.8c-0.2,3.4,3.5,6.5,6.6,5.5
			c3.2-0.9,3.8-4,3.2-5.7c-0.3-0.6-0.7-1.3-1.4-1.8c-1.2-0.7-2.5-0.4-2.6,0c-0.1,0.4,1.3,0.6,1.7,1.9c0.4,1.3-0.3,2.8-2.1,2.9
			c0,0-0.1,0-0.1,0c-0.2,0-0.3,0-0.4-0.1c-1.3-0.2-2.5-1.3-2.6-3.1c-0.1-2.2,1.8-4.2,4.1-4.4c1.3-0.1,2.4,0.1,3.3,0.6
			c0.8,0.5,2.1,1.7,2.9,3.9c-0.3,0.7-0.5,1.5-0.6,2.5c-0.4,2.1-0.1,3.7,0.6,4.2c0.1,0.1,0.3,0.1,0.4,0.1l0,0c0.1,0,0.3,0,0.4-0.1
			c0.7-0.5,0.9-2.1,0.6-4.2c-0.2-1-0.4-1.8-0.6-2.5c0.8-2.2,2.1-3.4,2.9-3.9c0.9-0.5,2-0.7,3.3-0.6c2.3,0.2,4.2,2.2,4.1,4.4
			c-0.1,1.7-1.3,2.8-2.6,3.1c-0.1,0-0.2,0-0.4,0.1c0,0-0.1,0-0.1,0c-1.8,0-2.5-1.6-2.1-2.9c0.4-1.3,1.8-1.5,1.7-1.9
			c-0.1-0.4-1.5-0.8-2.6,0c-0.7,0.4-1.1,1.2-1.3,1.8c-0.6,1.6,0,4.7,3.2,5.7c3.1,1,6.8-2.1,6.6-5.5c0.5,0.5,1.3,1.1,2.7,1.8
			C-160.7,846.5-159,845-159.1,843.8z M-179,848.9L-179,848.9L-179,848.9c-0.2-0.3-0.5-1.3-0.1-3.2c0-0.2,0.1-0.4,0.1-0.6v0v0
			c0,0.2,0.1,0.4,0.1,0.6C-178.5,847.6-178.8,848.6-179,848.9z"/>
		<g id="XMLID_545_">
			<circle id="XMLID_549_" class="st1" cx="-280.8" cy="741.9" r="2.8"/>
			<circle id="XMLID_548_" class="st1" cx="-280.8" cy="820.2" r="2.8"/>
			<circle id="XMLID_547_" class="st1" cx="-77.2" cy="741.9" r="2.8"/>
			<circle id="XMLID_546_" class="st1" cx="-77.2" cy="820.2" r="2.8"/>
		</g>
		<g id="XMLID_519_">
			<path id="XMLID_542_" class="st1" d="M-277.1,758.3h2.2c0.4,0,0.8,0,1.1,0.1c0.3,0.1,0.6,0.2,0.8,0.4c0.2,0.2,0.4,0.4,0.5,0.6
				c0.1,0.3,0.2,0.6,0.2,0.9c0,0.4-0.1,0.7-0.2,0.9c-0.1,0.3-0.3,0.5-0.6,0.6c-0.2,0.2-0.5,0.3-0.8,0.4c-0.3,0.1-0.7,0.1-1.1,0.1
				h-1.2v3.2h-1V758.3z M-276,761.5h1.1c0.2,0,0.5,0,0.7-0.1c0.2,0,0.4-0.1,0.5-0.2c0.2-0.1,0.3-0.2,0.4-0.4
				c0.1-0.2,0.1-0.3,0.1-0.6c0-0.2,0-0.4-0.1-0.6c-0.1-0.1-0.2-0.3-0.4-0.4c-0.1-0.1-0.3-0.2-0.5-0.2c-0.2,0-0.4-0.1-0.7-0.1h-1.1
				V761.5z"/>
			<path id="XMLID_539_" class="st1" d="M-271.2,765.6h-1.1l3.2-7.3h0.9l3.1,7.3h-1.2l-0.7-1.8h-3.5L-271.2,765.6z M-270.1,762.9
				h2.7l-1.4-3.4L-270.1,762.9z"/>
			<path id="XMLID_537_" class="st1" d="M-259,764.1L-259,764.1l0-5.9h1v7.3h-1.3l-3.9-6h0v6h-1v-7.3h1.3L-259,764.1z"/>
			<path id="XMLID_534_" class="st1" d="M-255.9,765.6h-1.1l3.2-7.3h0.9l3.1,7.3h-1.2l-0.7-1.8h-3.5L-255.9,765.6z M-254.8,762.9
				h2.7l-1.4-3.4L-254.8,762.9z"/>
			<path id="XMLID_531_" class="st1" d="M-248.8,758.3h2.5c0.5,0,0.9,0.1,1.4,0.2c0.5,0.1,0.9,0.4,1.3,0.7c0.4,0.3,0.7,0.7,0.9,1.1
				c0.2,0.5,0.4,1,0.4,1.7c0,0.6-0.1,1.2-0.4,1.6c-0.2,0.5-0.5,0.8-0.9,1.1c-0.4,0.3-0.8,0.5-1.3,0.7c-0.5,0.1-0.9,0.2-1.4,0.2h-2.5
				V758.3z M-247.8,764.7h1.3c0.4,0,0.9-0.1,1.2-0.2c0.4-0.1,0.7-0.3,1-0.5c0.3-0.2,0.5-0.5,0.6-0.9c0.2-0.3,0.2-0.7,0.2-1.2
				c0-0.5-0.1-0.9-0.2-1.2c-0.2-0.3-0.4-0.6-0.6-0.9c-0.3-0.2-0.6-0.4-1-0.5c-0.4-0.1-0.8-0.2-1.2-0.2h-1.3V764.7z"/>
			<path id="XMLID_529_" class="st1" d="M-239.9,764.7h3.8v0.9h-4.8v-7.3h4.7v0.9h-3.7v2.2h3.5v0.9h-3.5V764.7z"/>
			<path id="XMLID_526_" class="st1" d="M-233.7,765.6h-1v-7.3h2.3c0.4,0,0.7,0,1,0.1c0.3,0.1,0.6,0.2,0.8,0.3
				c0.2,0.2,0.4,0.4,0.6,0.6c0.1,0.3,0.2,0.6,0.2,0.9c0,0.5-0.2,1-0.5,1.3c-0.3,0.3-0.8,0.5-1.3,0.6l2,3.4h-1.2l-1.9-3.3h-1.1V765.6
				z M-233.7,761.5h1.2c0.2,0,0.5,0,0.7-0.1c0.2,0,0.4-0.1,0.5-0.2c0.2-0.1,0.3-0.2,0.4-0.4c0.1-0.1,0.1-0.3,0.1-0.6
				c0-0.2,0-0.4-0.1-0.6c-0.1-0.1-0.2-0.3-0.4-0.4c-0.1-0.1-0.3-0.2-0.5-0.2c-0.2,0-0.4-0.1-0.6-0.1h-1.3V761.5z"/>
			<path id="XMLID_523_" class="st1" d="M-227.6,757.7h-0.8l1-1.5h1.2L-227.6,757.7z M-227.4,765.6h-1v-7.3h1V765.6z"/>
			<path id="XMLID_520_" class="st1" d="M-225.3,765.6h-1.1l3.2-7.3h0.9l3.1,7.3h-1.2l-0.7-1.8h-3.5L-225.3,765.6z M-224.2,762.9
				h2.7l-1.4-3.4L-224.2,762.9z"/>
		</g>
	</g>
	<g id="XMLID_391_">
		<g id="XMLID_473_">
			<path id="XMLID_504_" class="st1" d="M-159.9,801.9c-0.3-0.1-0.7-0.1-0.9,0.2c-1.8,1.9-3.8,3.7-5.9,5.2c-1.2,0.9-4.2,3.1-5.8,3.1
				c-0.4,0-0.7-0.1-1-0.3c1.7-1.6,3-3.5,3-6c0-2.2-1.3-3.2-3.3-3.2c-2.6,0-5.4,2-7.3,3.6l0,0c-0.6,0.6-1.3,1.2-2,2
				c-0.4,0.3-0.7,0.5-1.1,0.8c-1,0.7-2.1,1.4-3.2,2.1c-2.3,1.3-5.1,2.6-7.8,2.6c-1.1,0-2.2-0.2-3.1-1c-0.7-0.6-1.1-1.4-1.1-2.3
				c0-1.7,1.6-3.5,2.7-4.5c1.3-1.3,3.1-2.6,5-2.6c0.2,0,0.8,0,0.9,0.1c0,0.4-0.3,0.9-0.6,1.2c-0.3,0.3-0.6,0.7-1.1,0.7
				c-0.3,0-0.6,0-0.8-0.2c-0.3-0.2-0.6-0.3-0.9-0.3c-1.4,0-2.1,0.8-2.1,2.2c0,0.1,0,0.3,0.1,0.4c0.3,0.6,1.1,0.7,1.6,0.7
				c1.4,0,2.8-0.8,4-1.5c1.3-0.8,2.6-2,2.6-3.7c0-1.5-1-2.2-2.4-2.2c-3.4,0-6.2,1.6-8.6,3.9c-0.2,0.2-0.3,0.3-0.5,0.5
				c-0.8,0.6-1.6,1.3-2.5,1.9c-1,0.7-2,1.4-3,2.1l0,0l0,0c-1.9,1.2-4.6,2.8-7,3.4c0.6-0.6,1.2-1.4,1.7-2.1c0.8-1.2,1.7-2.7,1.7-4.3
				c0-2.1-1.2-3.1-3.1-3.1c-0.8,0-1.5,0.2-2.1,0.5c-0.2,0-0.4,0.1-0.5,0.2l0,0l0,0c-1.6,1.3-3.2,2.5-4.9,3.8c-0.5,0.4-1,0.8-1.5,1.1
				c-0.3,0.2-0.6,0.4-0.9,0.6c-0.8,0.6-1.9,1.3-3.1,2c-0.3,0.2-0.6,0.3-0.8,0.5c-1.5,0.7-3,1.3-4.2,1.3c-0.6,0-1.2-0.2-1.7-0.5l0,0
				l0,0c-0.6-0.4-0.9-0.9-0.9-1.6c1.4-0.7,2.8-1.6,4-2.7c0.7-0.6,1.3-1.2,2-1.8c0.7-0.6,1.1-1.4,1.1-2.4c0-0.6-0.3-1.2-0.8-1.6
				c-0.4-0.4-1-0.6-1.5-0.6c-2,0-4,1.9-5.3,3.4c-1.3,1.4-2.5,3.3-2.9,5.3c-2.2,1.4-5.2,3-7.5,3c-0.5,0-0.8-0.2-1.2-0.5
				c-0.3-0.3-0.5-0.7-0.5-1.2c0-1,1.6-2.5,2.2-3.1c0.9-0.9,2.5-2.5,2.5-3.9c0-0.4-0.1-0.7-0.3-1c-0.4-0.6-1.2-0.7-1.8-0.7
				c-0.4,0-0.8,0.1-1.2,0.1c-0.2,0-0.3,0.1-0.5,0.1c0.5-0.7,0.9-1.5,0.9-2.3c0-0.9-0.7-1.3-1.5-1.3c-1.3,0-2.6,1.3-3.4,2.2
				c-0.8,0.9-2,2.3-2,3.6c0,0.3,0.1,0.5,0.2,0.8c-1.6,1.3-3.3,2.5-5.1,3.7c-0.7,0.5-1.4,0.9-2.1,1.3c-0.6,0.3-1.1,0.6-1.7,0.8
				l-0.1,0l-0.1,0.1c-0.3,0.4-0.7,0.9-0.7,1.4c0,0.1,0,0.1,0,0.2c0.2,0.6,0.9,0.6,1.4,0.6h0.1l0.1,0c1.6-0.7,3.1-1.7,4.6-2.7
				c1.9-1.3,3.7-2.8,5.5-4.4h0c0.7,0,1.5-0.1,2.2-0.2c0.4-0.1,0.8-0.1,1.2-0.2c-0.7,0.8-1.3,1.5-2,2.3l0,0l0,0
				c-0.7,0.8-1.6,2.2-1.6,3.3c0,1,0.4,1.9,1.1,2.6c0.7,0.7,1.5,1.1,2.5,1.1c3,0,6.1-1.4,8.8-3c0.5,1.9,1.9,2.8,4.1,2.8
				c2.1,0,4.2-0.7,6.2-1.7c0.9-0.4,1.8-0.9,2.7-1.4l0.1,0.1c0.4,0.4,0.8,0.8,1.2,1.2c0.2,0.2,0.5,0.5,0.8,0.6c1,0.7,2.3,0.9,3.5,0.9
				c4.5,0,8.7-1.4,12.5-3.9l0,0c0.3-0.2,0.7-0.5,1-0.8c0.3-0.2,0.5-0.4,0.8-0.6c-0.1,0.3-0.1,0.6-0.1,0.9c0,1.5,0.5,2.7,1.6,3.7
				c1.1,1.1,2.5,1.5,4,1.5c4.2,0,8.2-1.6,11.8-3.9c0,0.3-0.1,0.6-0.1,0.9c0,2.1,1.5,2.8,3.3,2.8c1.6,0,3.2-0.6,4.6-1.3l0,0
				c0.7-0.4,1.7-1,2.3-1.6c0.8,0.6,1.6,0.9,2.6,0.9c2.1,0,5.2-2.1,6.8-3.4c1.2-0.9,2.4-1.8,3.6-2.8c0.9-0.8,1.8-1.7,2.6-2.7
				c0.3-0.3,0.4-0.6,0.4-1C-159.4,802.3-159.6,802.1-159.9,801.9z M-230.9,804.6c0.4-0.5,1.5-1.5,2.1-1.5c0,0,0.1,0,0.2,0
				c0,0.2-0.1,0.4-0.2,0.7c-0.9,0.7-1.9,1.5-2.8,2.2c-0.1,0.1-0.3,0.2-0.4,0.3C-231.8,805.6-231.3,805-230.9,804.6z M-213.6,808.6
				c-1,1.2-2.3,2.1-3.9,2.1c-0.8,0-1.9-0.6-2.7-1.1c0.9-0.6,1.7-1.3,2.6-2c1.3-1.1,2.6-2.2,3.8-3.3c0.3-0.1,0.6-0.1,0.8-0.1
				c0.7,0,0.9,0.3,0.9,1C-212.1,806.5-212.9,807.7-213.6,808.6z M-180.9,811.8c-0.3,0-0.6,0-0.8-0.2c-0.4-0.3-0.4-0.9-0.4-1.4
				c0-0.7,0.3-1.4,0.7-2c0.7-0.6,1.4-1.2,2.2-1.8l0,0c0.5-0.4,1-0.9,1.5-1.3c0.2-0.1,0.4-0.2,0.6-0.3c-0.2,0.8-0.3,1.6-0.3,2.4
				c0,1.1,0.3,2,0.9,2.9C-177.9,810.9-179.4,811.8-180.9,811.8z M-175,808.4c-0.3-0.6-0.4-1.5-0.4-2.1c0-0.8,0.3-1.5,0.8-2.2
				c0.5-0.6,1-1,1.8-1c0.4,0,0.5,0.1,0.5,0.6C-172.3,805.6-173.7,807.3-175,808.4z"/>
			<path id="XMLID_496_" class="st1" d="M-76.7,800.4c-0.3-0.1-0.5,0-0.8,0.1l0,0l0,0c-1.6,1.2-3.2,2.4-4.8,3.6
				c-0.5,0.4-1,0.7-1.4,1.1c-0.3,0.2-0.5,0.4-0.8,0.5l0,0l0,0c-1.6,1.1-5,3.3-7,3.3c-0.7,0-1.7-0.1-2.2-0.7
				c-0.2-0.3-0.3-0.6-0.3-0.9c0-1.3,0.8-2.6,1.6-3.6c0.4-0.5,0.9-1,1.3-1.6c0.1-0.1,0.2-0.3,0.3-0.4c0.1-0.1,0.2-0.3,0.2-0.5
				c0-0.4-0.1-0.9-0.5-1.1c-0.1-0.1-0.3-0.1-0.4-0.1c-1.6,0-4,1.2-5.3,1.9c-1.4,0.7-2.7,1.5-4.1,2.3c-0.7,0.4-1.4,0.9-2.1,1.3
				c0.1-0.1,0.2-0.3,0.3-0.4c0.5-0.6,1-1.3,1.4-2c0.2-0.3,0.5-0.9,0.5-1.2c0-1.5-1.2-2-2.5-2c-0.3,0-0.5,0.1-0.8,0.2
				c-0.2,0-0.3,0.1-0.4,0.2l0,0l0,0c-1.7,1.3-3.4,2.5-5.1,3.8c-0.5,0.4-1.1,0.8-1.6,1.2c-0.3,0.2-0.7,0.5-1,0.7l0,0l0,0
				c-1.9,1.3-5.7,3.8-8.1,3.8c-1.2,0-1.6-0.5-1.6-1.7c0-0.5,0.6-1.7,0.9-2.1c0.3-0.5,1-1.8,1-2.4c0-0.7-0.5-1.1-1.2-1.1
				c0,0-0.1,0-0.1,0c0.5-0.5,0.7-1.1,0.7-1.9c0-0.2,0-0.4-0.1-0.6c-0.4-0.9-1.7-1-2.5-1c-3.1,0-6.2,1.9-8.6,3.8
				c-1.8,1.4-4.9,4.1-4.9,6.6c0,0.9,0.5,1.5,1.3,1.8c0.7,0.4,1.5,0.6,2.3,0.6c1.4,0,3.1-0.8,4.4-1.4c1.1-0.6,2.3-1.2,3.3-1.9
				c0.1,1.4,0.5,2.8,1.6,3.6c0.6,0.4,1.3,0.6,2,0.6c3.4,0,7.2-2.2,9.9-4.1c1.1-0.8,2.2-1.6,3.3-2.5c0.7-0.5,1.3-1,2-1.6
				c-0.6,0.8-1.1,1.7-1.7,2.5c-0.6,0.8-1.2,1.7-1.7,2.5c-0.2,0.4-0.6,1.1-0.6,1.6c0,0.3,0.3,0.6,0.5,0.8c0.2,0.2,0.5,0.3,0.8,0.3
				c0.2,0,0.4-0.1,0.6-0.2c0.3-0.1,0.5-0.3,0.7-0.4c0.9-0.5,1.8-1.1,2.6-1.7c2.7-1.7,5.4-3.4,8.1-4.9c-0.1,0.4-0.1,0.7-0.2,1.1
				c-0.1,0.6-0.2,1.1-0.2,1.7c0,2.5,1.2,4,3.8,4c3.3,0,6.7-1.9,9.4-3.6c1-0.7,2-1.5,3-2.3c1.6-1.3,3.2-2.6,4.8-3.9l0,0l0,0
				c0.3-0.3,0.4-0.6,0.4-1C-76.1,800.8-76.3,800.5-76.7,800.4z M-123.4,804.1c-0.5,0.5-0.9,1.1-1.5,1.6c-0.3,0.3-0.6,0.6-1,0.9
				c-1.8,1.2-4,2.3-6.2,2.3c-0.1,0-0.1,0-0.2,0c-0.2-0.1-0.2-0.5-0.2-0.7c0-1.5,1.7-3.1,2.7-4c1.3-1.1,3.1-2.4,4.9-2.4
				c0.4,0,0.7,0.2,0.9,0.6c0.1,0.2,0.2,0.3,0.2,0.5c0,0,0,0.1,0.1,0.2l0,0.4l0.5,0.1c0.1,0,0.3,0,0.4,0
				C-123,803.7-123.2,803.9-123.4,804.1z"/>
			<g id="XMLID_487_">
				<path id="XMLID_488_" class="st1" d="M-150.3,813.3c-1.1,0-1.7-0.8-1.7-1.9c0-0.5,0.2-1,0.5-1.5c0.5-0.8,1.1-1,1.5-1
					c0.4,0,0.8,0.1,1.1,0.3c0.1-0.1,0.3-0.2,0.4-0.3c0.6-0.5,1.1-1,1.6-1.5c0.9-0.9,1.7-1.9,2.4-2.6c0.9-1.1,1.9-2.3,3.1-3.7
					c2-2.4,3.7-4.5,5.3-6.6c0.4-0.6,1-1.4,1.6-2.2c0.1-0.1,0.1-0.2,0.2-0.3c-1-0.2-1.8-0.4-2.7-0.6c-1.2-0.3-2.3-0.7-3.2-1.1
					c-0.9-0.4-1.4-1-1.4-1.9c0-0.3,0.1-0.6,0.2-0.8c0.3-0.5,0.8-0.7,1.6-0.7c0.1,0,0.2,0,0.3,0c0.4,0,0.9,0.1,1.3,0.2
					c0.7,0.2,1.5,0.4,2.1,0.5c1,0.3,1.8,0.5,2.6,0.7c0.4,0.1,0.8,0.2,1.2,0.3c3.2-4.5,6.8-8.5,10.8-11.9c6.1-5.3,11.9-8,17.1-8
					c2.3,0,4.2,0.5,5.6,1.5c1.5,1,2.3,2.5,2.3,4.3c0,2.7-2.1,5.8-6.4,9.3c-3,2.5-6.7,4.5-11.4,6.2c-4.7,1.7-8.9,2.5-12.7,2.5
					c-1.1,0-2,0-2.8,0c-0.4,0-0.9,0-1.4-0.1c-1,1.4-2,3-3.2,4.6c-1.3,1.9-2.8,3.8-4.4,5.9c-1.8,2.4-4,4.7-6.5,7
					c-0.6,0.5-1.1,0.9-1.6,1.3c-0.5,0.4-0.9,0.7-1.3,1C-148.8,812.8-149.6,813.3-150.3,813.3z M-128.9,789.1h2.8
					c3.2,0,6.8-0.7,10.9-2c4.2-1.4,7.7-3,10.5-5c2.9-2.1,4.5-4.2,4.6-6.3c0-0.9-0.4-1.7-1.4-2.4c-1.1-0.7-2.5-1.1-4.1-1.1
					c-3.6,0-7.5,1.5-11.5,4.5c-2.1,1.5-4.1,3.4-6.3,5.7C-125.2,784.5-127,786.7-128.9,789.1z"/>
			</g>
			<path id="XMLID_481_" class="st1" d="M-272.6,793.8c-3.2,0-5.8-0.8-7.7-2.3c-2-1.6-3-3.7-3-6.3c0-3.7,2.3-7.1,6.8-10
				c4.5-2.9,9.5-4.4,15-4.4c1.9,0,4.1,0.2,6.8,0.7c2.7,0.4,5.5,1.1,9,2c3.6,0.9,7.4,1.9,11.2,2.8c1.5,0.4,2.7,0.6,3.8,0.9
				c0.8,0.2,1.6,0.4,2.5,0.5l1.5,0.3l-1.4,0.8c-1.7,1-3.1,1.5-4.3,1.5c-0.2,0-0.3,0-0.5,0c-0.7,0-1.5-0.1-2.1-0.2l-23.3-6
				c-1.2-0.3-2.2-0.5-3.1-0.7c-0.9-0.1-1.7-0.2-2.5-0.2c-3.3,0-6.9,1.1-10.5,3.3c-4,2.4-6,5-6,7.9c0,1.7,1.1,3.3,3.2,4.7
				c2.2,1.5,4.7,2.3,7.4,2.3c2,0,4.5-0.8,7.7-2.3l0.1,0l0.1,0c0.7-0.1,1.2,0.2,1.4,0.9l0.1,0.5l-0.4,0.2c-2.4,1.1-4.5,1.9-6.5,2.5
				C-269.3,793.5-271.1,793.8-272.6,793.8z"/>
			<g id="XMLID_474_">
				<g>
					<path id="XMLID_21_" class="st1" d="M-271.4,814.9c-1.2,0-2.1-0.8-2.2-2l0-0.1c0-0.9,0.3-1.5,0.8-1.8c0.2-0.1,0.4-0.2,0.7-0.2
						c0.2,0,0.4,0,0.5,0l0,0c0,0,0.1,0,0.1,0c1.4-0.5,3.1-1.8,5.1-3.9c1.4-1.5,2.8-3,3.8-4.3c1.1-1.3,2.3-2.8,3.5-4.4
						c-0.7,0.1-1.4,0.2-1.9,0.2c-1.2,0.2-2.4,0.4-3.6,0.5c-0.8,0.1-1.6,0.2-2.4,0.3l-0.6,0.1l-0.3-0.5c-0.3-0.4-0.4-0.9-0.4-1.4
						c0-0.5,0.1-1,0.4-1.4c0.5-0.8,1.5-1.1,2.8-1.1c0.4,0,0.8,0,1.3-0.1c0.7-0.1,1.5-0.1,2.1-0.2c2-0.2,4.1-0.5,6.1-0.8
						c1.3-1.9,2.8-4,4.6-6.5c1-1.4,1.6-2.6,2.3-3.7c0.7-1.2,1.4-2.5,2.5-4l0.1-0.1l2-0.9l2.6,0.8l-0.8,1c-0.5,0.6-0.9,1.2-1.5,1.9
						c-0.8,1.1-1.6,2.2-2.3,3.1c-2,2.8-4,5.6-5.7,8c1.1-0.1,2-0.2,2.9-0.3c1-0.1,2.1-0.2,3.1-0.2c0.5,0,0.9,0.2,1.2,0.5
						c0.2,0.3,0.3,0.8,0.1,1.2l0,0c-0.4,1.2-1.5,2-3.1,2.2l-7.5,0.8c-2.5,3.4-4.8,6.4-7.1,9.2c-1.1,1.3-2,2.4-2.9,3.3
						c-0.9,1-1.7,1.8-2.4,2.4C-268.7,813.7-270.1,814.9-271.4,814.9z"/>
				</g>
			</g>
		</g>
		<g id="XMLID_392_">
			<g id="XMLID_403_">
				<path id="XMLID_472_" class="st1" d="M-135.9,763.9c0-0.2,0-0.4,0-0.6c0-1.2,0-2.4,0-3.6c0-0.7,0.3-1.1,0.9-1.1
					c0.6,0,0.9,0.4,0.9,1.1c0,2.2,0,4.3,0,6.5c0,0.5,0,1-0.6,1.2c-0.6,0.2-1-0.1-1.4-0.6c-1.1-1.5-2.2-2.9-3.3-4.3
					c-0.2-0.2-0.3-0.4-0.6-0.5c0,0.2,0,0.4,0,0.6c0,1.2,0,2.5,0,3.7c0,0.8-0.3,1.2-0.9,1.2c-0.6,0-0.9-0.4-0.9-1.1
					c0-2.2,0-4.4,0-6.6c0-0.5,0-0.9,0.6-1.1c0.5-0.1,1.1-0.1,1.5,0.4c1.1,1.5,2.3,3,3.4,4.4c0.1,0.1,0.2,0.3,0.4,0.4
					C-136,763.9-135.9,763.9-135.9,763.9z"/>
				<path id="XMLID_409_" class="st1" d="M-128.8,767.5c-2.4,0.1-4.6-1.6-4.6-4.5c0-2.8,2.2-4.6,4.7-4.5c2.2,0,4.6,1.5,4.6,4.5
					C-124.2,766-126.6,767.6-128.8,767.5z M-131.6,763c0,1.6,1.2,2.9,2.7,2.9c1.5,0,2.7-1.2,2.7-2.9c0-1.6-1.2-2.9-2.8-2.9
					C-130.4,760.1-131.5,761.4-131.6,763z"/>
				<path id="XMLID_408_" class="st1" d="M-120.5,767.6c-1.1-0.1-2.2-0.4-3.1-1c-0.5-0.3-0.7-0.8-0.4-1.2c0.3-0.5,0.8-0.5,1.3-0.2
					c0.7,0.5,1.5,0.8,2.4,0.7c0.5,0,1-0.2,1.2-0.8c0.1-0.6-0.3-0.9-0.8-1c-0.6-0.2-1.3-0.4-2-0.6c-1.5-0.5-2-1.3-1.9-2.5
					c0-1.3,0.9-2.1,2.3-2.4c1.2-0.2,2.3,0,3.3,0.5c0.6,0.3,0.8,0.8,0.5,1.2c-0.2,0.5-0.7,0.6-1.3,0.3c-0.4-0.2-0.9-0.4-1.4-0.5
					c-0.4-0.1-0.8,0-1.2,0.1c-0.6,0.3-0.7,1.1-0.1,1.4c0.4,0.2,0.9,0.3,1.3,0.5c0.6,0.2,1.1,0.3,1.7,0.6c0.9,0.4,1.4,1.1,1.4,2
					c0,1-0.4,1.9-1.3,2.3C-119.3,767.3-119.9,767.4-120.5,767.6z"/>
				<path id="XMLID_405_" class="st1" d="M-146.6,765.3c-0.1,0-0.2,0-0.3,0c-1.2-0.2-2,0.2-2.3,1.4c-0.1,0.6-0.7,0.8-1.2,0.6
					c-0.5-0.2-0.6-0.7-0.3-1.3c1-2.3,2-4.5,3-6.8c0.2-0.5,0.6-0.9,1.2-0.8c0.6,0,0.9,0.4,1.2,0.9c1,2.2,2,4.5,3,6.7
					c0.3,0.6,0.1,1.1-0.3,1.3c-0.5,0.2-1.1,0-1.2-0.6c-0.3-1.3-1.1-1.6-2.3-1.4C-146.4,765.3-146.5,765.3-146.6,765.3z
					 M-145.3,763.7c-0.4-1-0.8-2-1.2-2.9c-0.1,0-0.1,0-0.2,0c-0.4,0.9-0.8,1.9-1.2,2.9C-147,763.7-146.2,763.7-145.3,763.7z"/>
				<path id="XMLID_404_" class="st1" d="M-138.8,755.9c0.4,0.1,0.9,0.3,1.3,0.4c0.4,0.1,0.8,0.2,1.1-0.3c0.1-0.2,0.4-0.1,0.7-0.2
					c0.1,0.2,0.2,0.5,0.2,0.7c-0.3,1-0.9,1.4-1.9,1.1c-0.3-0.1-0.5-0.2-0.7-0.3c-0.5-0.2-0.8-0.2-1.2,0.2c-0.1,0.2-0.5,0.1-0.7,0.2
					c-0.1-0.2-0.2-0.5-0.2-0.7C-140.1,756.4-139.6,756-138.8,755.9z"/>
			</g>
			<g id="XMLID_16_">
				<g id="XMLID_86_">
					<g id="XMLID_87_">
						<path id="XMLID_88_" class="st1" d="M-201,737.4l-0.4,11.4h4l0.3-10.7c3.1,1.8,6.3,1.7,9.4-0.4c2.1,1.1,4.2,1.6,6.3,1.6
							c2.9,0,5.5-1.1,7.5-3.1c2.8-2.9,4.2-7.5,4-13.3c0-0.4-0.3-0.8-0.8-0.8c-0.4,0-0.8,0.3-0.9,0.7c-1.7,9.5-7,11.5-11,11.5
							c-0.4,0-0.8,0-1.2-0.1c2.2-3,2.8-6.7,1.9-11.6c-0.1-0.4-0.4-0.7-0.8-0.7c-0.4,0-0.7,0.3-0.8,0.7c-0.8,6.7-5,11.1-10.5,11.1
							c-2.9,0-5.9-1.3-8.6-3.8c-1.6-2.9-1.6-6.1,0-8.8c1.7-2.9,4.9-4.7,8.3-4.7c2.2,0,4.4,0.7,6.5,2.1c0.3,0.2,0.6,0.2,0.9,0
							c2.1-1.4,4.2-2,6.3-2c2.1,0,4.3,0.7,6.6,2c0.3,0.2,0.6,0.2,0.9,0c2.2-1.4,4.4-2.1,6.5-2.1c5,0,8.4,4,9.1,7.9
							c1.1,5.6-2.7,9.3-6.6,10.9c-0.3,0.1-0.5,0.4-0.5,0.8l0.4,12.9h4l-0.3-10.9c3-1.5,5.2-3.7,6.4-6.5c1.3-2.9,1.5-6.2,0.6-9.3
							c-0.7-2.3-1.9-4.4-3.6-6c-2.1-2.1-4.8-3.4-7.7-3.7c-2.7-0.3-5.6,0.4-8.4,1.8c-2.5-1.2-4.8-1.8-7.2-1.8c-2.3,0-4.7,0.6-7,1.8
							c-3.4-1.8-7.1-2.4-10.6-1.5c-3.6,0.9-6.7,3.3-8.4,6.5c-1.6,3-2,6.4-1,9.7C-206.5,732.1-204.3,735-201,737.4z"/>
					</g>
				</g>
				<g id="XMLID_85_">
					<path class="st1" d="M-199.3,764.4c-1.2,0-2.3,0.2-3.3,0c-2.5-0.4-4.4-2.6-4.6-5c-0.2-2.7,1.3-5.1,3.8-6c1.6-0.6,3.3-1,5-1.5
						c0.2-0.1,6.3-1.5,9.2,0.1c3.2,1.4,2.4,4.8,2.4,5.3c0,9.9,0,19.9,0,29.8c0,3.6-2.7,6.4-6.2,6.4c-3.5,0-6.2-2.8-6.2-6.4
						c0-7.3,0-14.6,0-21.9C-199.3,765-199.3,764.7-199.3,764.4z"/>
				</g>
				<path id="XMLID_82_" class="st1" d="M-152.3,775.9c-1.5-5.7-6.6-9.7-14.8-9.7c-3.3,0-5.5,0.6-5.5,0.6v-0.9
					c0-2.6,1.6-4.4,4.4-4.4c1.7,0,2.7,0.7,3.7,1.5c1.4,1.2,2.7,2.6,5.3,2.6c4.1,0,6-2,6-5.2c0-0.7-0.2-1.5-0.4-2.2
					c-0.8-3-4.8-8.3-12.5-7.4c-5.3,0.9-4,3.6-13.6,3.7c-1.7,0-3.7,1.3-4.2,2.8c-0.9,2.4-1.1,5.3-1.1,8.6v12.6c0,1.2,0.1,2.3,0.4,3.4
					c1.5,6.8,7.4,11.8,16.5,11.8c8.8,0,14-3.8,15.7-9.5c0.4-1.4,0.6-2.9,0.6-4.5C-151.9,778.3-152,777-152.3,775.9z M-167.7,783.1
					c-0.2,0-0.3,0-0.5,0c-2.5,0-4.4-2-4.4-4.7V777v-0.4c0,0,1.6-0.6,3.3-0.6c3.3,0,4.9,1.8,4.9,3.5
					C-164.4,781.2-165.8,782.8-167.7,783.1z"/>
			</g>
		</g>
	</g>
</g>
</svg>
