<?xml version="1.0" encoding="utf-8"?>
<!-- Generator: Adobe Illustrator 19.0.0, SVG Export Plug-In . SVG Version: 6.00 Build 0)  -->
<svg version="1.1" id="Capa_1" xmlns="http://www.w3.org/2000/svg" xmlns:xlink="http://www.w3.org/1999/xlink" x="0px" y="0px"
	 viewBox="-239 271 200 140" style="enable-background:new -239 271 200 140;" xml:space="preserve">
<style type="text/css">
	.st0{fill:#342B20;}
	.st1{fill:#FFFFFF;}
</style>
<g>
	<g>
		<g>
			<path class="st0" d="M-57.9,320.5c0-18.4-9.5-18.4-27.7-18.4c0-16.9-2.9-14.1-24.9-14.1c-18.9,0-26.2-8.9-28.5-12.9
				c-2.3,3.9-9.6,12.9-28.5,12.9c-22,0-24.9-2.9-24.9,14.1c-18.2,0-27.7,0-27.7,18.4c0,14.6-16.2,20.5-16.2,20.5s16.2,5.9,16.2,20.5
				c0,18.4,9.5,18.4,27.7,18.4c0,16.9,2.9,14.1,24.9,14.1c18.9,0,26.2,8.9,28.5,12.9c2.3-3.9,9.6-12.9,28.5-12.9
				c22,0,24.9,2.9,24.9-14.1c18.2,0,27.7,0,27.7-18.4c0-14.6,16.2-20.5,16.2-20.5S-57.9,335.1-57.9,320.5z"/>
		</g>
		<path class="st1" d="M-139,282.1c4.7,4.8,13.3,10.2,28.5,10.2c3.2,0,6-0.1,8.4-0.1c1.8,0,3.5-0.1,4.9-0.1c3.7,0,5.7,0.3,6.2,0.8
			c1.1,1.3,1.1,7,1.1,9.1v3.4v0.9h0.9h3.5c18.9,0,23.4,0.5,23.4,14.1c0,10.1,6.1,16.6,11.6,20.5c-5.5,3.9-11.6,10.4-11.6,20.5
			c0,8.8-2.4,11.1-4.7,12.3c-3.8,1.9-10.4,1.9-18.8,1.9h-3.4h-0.9v0.9v3.4c0,2.1,0,7.9-1.1,9.1c-0.5,0.6-2.6,0.8-6.2,0.8
			c-1.5,0-3.2,0-4.9-0.1c-2.4-0.1-5.2-0.1-8.4-0.1c-15.2,0-23.8,5.4-28.5,10.2c-4.7-4.8-13.3-10.2-28.5-10.2c-3.2,0-6,0.1-8.4,0.1
			c-1.8,0-3.5,0.1-4.9,0.1c-3.7,0-5.7-0.3-6.2-0.8c-1.1-1.3-1.1-7-1.1-9.1v-3.4v-0.9h-0.9h-3.5c-18.9,0-23.4-0.5-23.4-14.1
			c0-10.1-6.1-16.6-11.6-20.5c5.5-3.9,11.6-10.4,11.6-20.5c0-8.8,2.4-11.1,4.7-12.3c3.8-1.9,10.4-1.9,18.8-1.9h3.4h0.9v-0.9v-3.4
			c0-2.1,0-7.9,1.1-9.1c0.5-0.6,2.5-0.8,6.2-0.8c1.5,0,3.2,0,4.9,0.1c2.4,0.1,5.2,0.1,8.4,0.1C-152.3,292.3-143.7,286.9-139,282.1
			L-139,282.1z M-139,280.9c-4.3,4.7-12.8,10.6-28.5,10.6c-3.2,0-6-0.1-8.4-0.1c-1.9,0-3.5-0.1-5-0.1c-4.2,0-6.2,0.3-6.9,1.1
			c-1.1,1.3-1.3,5.6-1.3,9.7v3.4h-3.4c-8.5,0-15.3,0-19.2,1.9c-2.5,1.3-5.1,3.8-5.1,13c0,10.5-6.9,17-12.3,20.5
			c5.4,3.5,12.3,10,12.3,20.5c0,14.4,5,15,24.3,15h3.5v3.4c0,4,0.1,8.3,1.3,9.7c0.7,0.8,2.7,1.1,6.9,1.1c1.4,0,3.1,0,5-0.1
			c2.4-0.1,5.2-0.1,8.4-0.1c15.7,0,24.2,5.8,28.5,10.6c4.3-4.7,12.8-10.6,28.5-10.6c3.2,0,6,0.1,8.4,0.1c1.9,0,3.5,0.1,5,0.1
			c4.2,0,6.2-0.3,6.9-1.1c1.1-1.3,1.3-5.6,1.3-9.7v-3.4h3.4c8.5,0,15.3,0,19.2-1.9c2.5-1.3,5.1-3.8,5.1-13c0-10.5,6.9-17,12.3-20.5
			c-5.4-3.5-12.3-10-12.3-20.5c0-14.4-5-15-24.3-15h-3.5v-3.4c0-4-0.1-8.3-1.3-9.7c-0.7-0.8-2.7-1.1-6.9-1.1c-1.4,0-3.1,0-5,0.1
			c-2.4,0.1-5.2,0.1-8.4,0.1C-126.2,291.4-134.7,285.6-139,280.9L-139,280.9z"/>
		<path class="st1" d="M-125.7,383.1c-0.1-0.8-0.1-0.3-1.8-0.4c-1.7,0-2.8-1.4-3.7-2.3c0,0,0,0,0,0c-0.9-1.1-2.2-1.7-3.4-1.7
			c-2.9,0-4.2,2.7-4.4,3l0,0l0,0c-0.2-0.3-1.5-3-4.4-3c-1.2,0-2.6,0.6-3.4,1.7c0,0,0,0,0,0c-0.8,1-2,2.3-3.7,2.3
			c-1.7,0-1.8-0.4-1.8,0.4c-0.1,0.8,1,1.8,2.8,0.8c0.9-0.5,1.5-0.9,1.8-1.2c-0.1,2.3,2.4,4.3,4.4,3.7c2.2-0.6,2.5-2.7,2.2-3.8
			c-0.2-0.4-0.5-0.9-0.9-1.2c-0.8-0.5-1.7-0.3-1.8,0c-0.1,0.3,0.8,0.4,1.1,1.3c0.3,0.9-0.2,1.9-1.4,1.9c0,0,0,0-0.1,0
			c-0.1,0-0.2,0-0.3,0c-0.9-0.1-1.7-0.9-1.7-2.1c-0.1-1.5,1.2-2.8,2.7-3c0.9-0.1,1.6,0.1,2.2,0.4c0.5,0.3,1.4,1.1,1.9,2.6
			c-0.2,0.5-0.3,1-0.4,1.7c-0.3,1.4-0.1,2.5,0.4,2.8c0.1,0.1,0.2,0.1,0.3,0.1l0,0c0.1,0,0.2,0,0.3-0.1c0.4-0.3,0.6-1.4,0.4-2.8
			c-0.1-0.6-0.3-1.2-0.4-1.7c0.5-1.5,1.4-2.3,2-2.6c0.6-0.3,1.3-0.5,2.2-0.4c1.5,0.1,2.8,1.5,2.7,3c-0.1,1.2-0.9,1.9-1.7,2.1
			c-0.1,0-0.2,0-0.3,0c0,0,0,0-0.1,0c-1.2,0-1.7-1.1-1.4-1.9c0.3-0.9,1.2-1,1.1-1.3c-0.1-0.3-1-0.5-1.8,0c-0.4,0.3-0.7,0.8-0.9,1.2
			c-0.4,1.1,0,3.2,2.2,3.8c2.1,0.7,4.6-1.4,4.4-3.7c0.4,0.3,0.9,0.7,1.8,1.2C-126.7,385-125.6,383.9-125.7,383.1z M-139,386.6
			L-139,386.6L-139,386.6c-0.1-0.2-0.3-0.8-0.1-2.1c0-0.1,0.1-0.2,0.1-0.4v0v0c0,0.1,0.1,0.2,0.1,0.4
			C-138.7,385.7-138.9,386.3-139,386.6z"/>
		<circle class="st1" cx="-207.3" cy="314.7" r="1.9"/>
		<circle class="st1" cx="-207.3" cy="367.3" r="1.9"/>
		<circle class="st1" cx="-70.7" cy="314.7" r="1.9"/>
		<circle class="st1" cx="-70.7" cy="367.3" r="1.9"/>
		<g>
			<path class="st1" d="M-204.8,325.7h1.5c0.3,0,0.5,0,0.7,0.1c0.2,0.1,0.4,0.1,0.6,0.2c0.2,0.1,0.3,0.3,0.4,0.4
				c0.1,0.2,0.1,0.4,0.1,0.6c0,0.2,0,0.5-0.1,0.6c-0.1,0.2-0.2,0.3-0.4,0.4c-0.2,0.1-0.3,0.2-0.6,0.2c-0.2,0.1-0.5,0.1-0.7,0.1h-0.8
				v2.2h-0.7V325.7z M-204.1,327.9h0.7c0.2,0,0.3,0,0.5,0c0.1,0,0.3-0.1,0.4-0.1c0.1-0.1,0.2-0.1,0.2-0.2c0.1-0.1,0.1-0.2,0.1-0.4
				c0-0.1,0-0.3-0.1-0.4c-0.1-0.1-0.1-0.2-0.2-0.2c-0.1-0.1-0.2-0.1-0.4-0.1c-0.1,0-0.3,0-0.5,0h-0.7V327.9z"/>
			<path class="st1" d="M-200.9,330.6h-0.8l2.1-4.9h0.6l2.1,4.9h-0.8l-0.5-1.2h-2.3L-200.9,330.6z M-200.2,328.8h1.8l-0.9-2.3
				L-200.2,328.8z"/>
			<path class="st1" d="M-192.7,329.7L-192.7,329.7l0-3.9h0.7v4.9h-0.9l-2.6-4h0v4h-0.7v-4.9h0.9L-192.7,329.7z"/>
			<path class="st1" d="M-190.6,330.6h-0.8l2.1-4.9h0.6l2.1,4.9h-0.8l-0.5-1.2h-2.3L-190.6,330.6z M-189.9,328.8h1.8l-0.9-2.3
				L-189.9,328.8z"/>
			<path class="st1" d="M-185.9,325.7h1.7c0.3,0,0.6,0,0.9,0.1c0.3,0.1,0.6,0.2,0.9,0.4c0.3,0.2,0.5,0.5,0.6,0.8
				c0.2,0.3,0.2,0.7,0.2,1.1c0,0.4-0.1,0.8-0.2,1.1c-0.2,0.3-0.4,0.6-0.6,0.8c-0.3,0.2-0.5,0.4-0.9,0.5c-0.3,0.1-0.6,0.1-0.9,0.1
				h-1.7V325.7z M-185.2,330h0.9c0.3,0,0.6,0,0.8-0.1c0.3-0.1,0.5-0.2,0.7-0.4c0.2-0.2,0.3-0.4,0.4-0.6c0.1-0.2,0.2-0.5,0.2-0.8
				c0-0.3-0.1-0.6-0.2-0.8c-0.1-0.2-0.2-0.4-0.4-0.6c-0.2-0.2-0.4-0.3-0.7-0.4c-0.3-0.1-0.5-0.1-0.8-0.1h-0.9V330z"/>
			<path class="st1" d="M-179.9,330h2.6v0.6h-3.3v-4.9h3.2v0.6h-2.5v1.5h2.3v0.6h-2.3V330z"/>
			<path class="st1" d="M-175.7,330.6h-0.7v-4.9h1.6c0.2,0,0.5,0,0.7,0.1c0.2,0,0.4,0.1,0.6,0.2c0.2,0.1,0.3,0.2,0.4,0.4
				c0.1,0.2,0.1,0.4,0.1,0.6c0,0.4-0.1,0.7-0.3,0.9c-0.2,0.2-0.5,0.4-0.9,0.4l1.4,2.3h-0.8l-1.2-2.2h-0.7V330.6z M-175.7,327.9h0.8
				c0.2,0,0.3,0,0.5,0c0.1,0,0.3-0.1,0.4-0.1c0.1-0.1,0.2-0.1,0.2-0.2c0.1-0.1,0.1-0.2,0.1-0.4c0-0.1,0-0.3-0.1-0.4
				c-0.1-0.1-0.1-0.2-0.2-0.2c-0.1-0.1-0.2-0.1-0.4-0.1c-0.1,0-0.3,0-0.4,0h-0.8V327.9z"/>
			<path class="st1" d="M-171.6,325.3h-0.5l0.7-1h0.8L-171.6,325.3z M-171.5,330.6h-0.7v-4.9h0.7V330.6z"/>
			<path class="st1" d="M-170.1,330.6h-0.8l2.1-4.9h0.6l2.1,4.9h-0.8l-0.5-1.2h-2.3L-170.1,330.6z M-169.3,328.8h1.8l-0.9-2.3
				L-169.3,328.8z"/>
		</g>
	</g>
	<g>
		<g>
			<path class="st1" d="M-126.2,355.1c-0.2-0.1-0.4-0.1-0.6,0.1c-1.2,1.3-2.6,2.5-4,3.5c-0.8,0.6-2.8,2-3.9,2
				c-0.3,0-0.5-0.1-0.7-0.2c1.1-1,2-2.4,2-4c0-1.5-0.9-2.1-2.2-2.1c-1.7,0-3.6,1.3-4.9,2.4l0,0c-0.4,0.4-0.9,0.8-1.3,1.3
				c-0.2,0.2-0.5,0.4-0.8,0.5c-0.7,0.5-1.4,1-2.2,1.4c-1.5,0.9-3.4,1.7-5.2,1.7c-0.8,0-1.5-0.2-2.1-0.7c-0.5-0.4-0.8-0.9-0.8-1.6
				c0-1.1,1-2.3,1.8-3c0.9-0.9,2.1-1.8,3.4-1.8c0.1,0,0.5,0,0.6,0.1c0,0.3-0.2,0.6-0.4,0.8c-0.2,0.2-0.4,0.5-0.7,0.5
				c-0.2,0-0.4,0-0.6-0.1c-0.2-0.1-0.4-0.2-0.6-0.2c-0.9,0-1.4,0.5-1.4,1.5c0,0.1,0,0.2,0.1,0.3c0.2,0.4,0.7,0.5,1.1,0.5
				c0.9,0,1.9-0.5,2.7-1c0.8-0.5,1.8-1.3,1.8-2.5c0-1-0.7-1.4-1.6-1.4c-2.3,0-4.2,1.1-5.8,2.6c-0.1,0.1-0.2,0.2-0.3,0.3
				c-0.5,0.4-1.1,0.8-1.7,1.3c-0.7,0.5-1.3,1-2,1.4l0,0l0,0c-1.3,0.8-3.1,1.9-4.7,2.3c0.4-0.4,0.8-0.9,1.1-1.4
				c0.6-0.8,1.2-1.8,1.2-2.9c0-1.4-0.8-2.1-2.1-2.1c-0.5,0-1,0.1-1.4,0.3c-0.1,0-0.2,0-0.3,0.1l0,0l0,0c-1.1,0.9-2.2,1.7-3.3,2.6
				c-0.3,0.3-0.7,0.5-1,0.8c-0.2,0.1-0.4,0.3-0.6,0.4c-0.6,0.4-1.3,0.9-2.1,1.3c-0.2,0.1-0.4,0.2-0.6,0.3c-1,0.5-2,0.9-2.8,0.9
				c-0.4,0-0.8-0.1-1.2-0.4l0,0l0,0c-0.4-0.3-0.6-0.6-0.6-1.1c1-0.5,1.9-1.1,2.7-1.8c0.5-0.4,0.9-0.8,1.3-1.2
				c0.4-0.4,0.8-0.9,0.8-1.6c0-0.4-0.2-0.8-0.5-1.1c-0.3-0.3-0.6-0.4-1-0.4c-1.4,0-2.7,1.3-3.6,2.3c-0.8,1-1.7,2.2-1.9,3.5
				c-1.5,0.9-3.5,2-5,2c-0.3,0-0.6-0.1-0.8-0.3c-0.2-0.2-0.3-0.5-0.3-0.8c0-0.6,1.1-1.7,1.5-2.1c0.6-0.6,1.7-1.7,1.7-2.6
				c0-0.2-0.1-0.5-0.2-0.7c-0.3-0.4-0.8-0.5-1.2-0.5c-0.3,0-0.5,0-0.8,0.1c-0.1,0-0.2,0-0.3,0.1c0.4-0.5,0.6-1,0.6-1.6
				c0-0.6-0.5-0.9-1-0.9c-0.8,0-1.7,0.9-2.3,1.5c-0.5,0.6-1.3,1.6-1.3,2.4c0,0.2,0.1,0.4,0.1,0.5c-1.1,0.9-2.2,1.7-3.4,2.5
				c-0.5,0.3-0.9,0.6-1.4,0.9c-0.4,0.2-0.8,0.4-1.1,0.6l-0.1,0l0,0.1c-0.2,0.2-0.4,0.6-0.4,0.9c0,0.1,0,0.1,0,0.1
				c0.1,0.4,0.6,0.4,0.9,0.4h0.1l0.1,0c1.1-0.5,2.1-1.1,3.1-1.8c1.3-0.9,2.5-1.9,3.7-2.9h0c0.5,0,1-0.1,1.5-0.1
				c0.3,0,0.5-0.1,0.8-0.1c-0.4,0.5-0.9,1-1.4,1.5l0,0l0,0c-0.5,0.6-1.1,1.5-1.1,2.2c0,0.7,0.3,1.3,0.8,1.7c0.5,0.5,1,0.8,1.7,0.8
				c2,0,4.1-0.9,5.9-2c0.3,1.2,1.3,1.9,2.8,1.9c1.4,0,2.8-0.5,4.2-1.1c0.6-0.3,1.2-0.6,1.8-0.9l0.1,0.1c0.3,0.3,0.5,0.5,0.8,0.8
				c0.2,0.1,0.3,0.3,0.5,0.4c0.7,0.5,1.5,0.6,2.3,0.6c3,0,5.8-0.9,8.4-2.6l0,0c0.2-0.2,0.5-0.3,0.7-0.5c0.2-0.1,0.3-0.3,0.5-0.4
				c0,0.2-0.1,0.4-0.1,0.6c0,1,0.4,1.8,1.1,2.5c0.7,0.7,1.7,1,2.7,1c2.8,0,5.5-1.1,7.9-2.6c0,0.2,0,0.4,0,0.6c0,1.4,1,1.9,2.2,1.9
				c1.1,0,2.1-0.4,3.1-0.9l0,0c0.5-0.2,1.1-0.7,1.6-1.1c0.5,0.4,1.1,0.6,1.7,0.6c1.4,0,3.5-1.4,4.6-2.3c0.8-0.6,1.6-1.2,2.4-1.9
				c0.6-0.5,1.2-1.1,1.7-1.8c0.2-0.2,0.2-0.4,0.2-0.7C-125.8,355.3-126,355.1-126.2,355.1z M-173.8,356.8c0.3-0.3,1-1,1.4-1
				c0,0,0.1,0,0.1,0c0,0.1-0.1,0.3-0.2,0.5c-0.6,0.5-1.3,1-1.9,1.5c-0.1,0.1-0.2,0.1-0.3,0.2C-174.4,357.5-174.1,357.1-173.8,356.8z
				 M-162.2,359.5c-0.7,0.8-1.5,1.4-2.6,1.4c-0.5,0-1.3-0.4-1.8-0.7c0.6-0.4,1.2-0.9,1.7-1.4c0.9-0.7,1.7-1.5,2.5-2.2
				c0.2,0,0.4,0,0.6,0c0.5,0,0.6,0.2,0.6,0.7C-161.2,358.1-161.7,358.9-162.2,359.5z M-140.3,361.7c-0.2,0-0.4,0-0.5-0.2
				c-0.2-0.2-0.3-0.6-0.3-0.9c0-0.5,0.2-0.9,0.5-1.4c0.5-0.4,1-0.8,1.5-1.2l0,0c0.3-0.3,0.7-0.6,1-0.9c0.1-0.1,0.3-0.2,0.4-0.2
				c-0.2,0.5-0.2,1.1-0.2,1.6c0,0.7,0.2,1.4,0.6,1.9C-138.3,361.1-139.3,361.7-140.3,361.7z M-136.3,359.4c-0.2-0.4-0.2-1-0.2-1.4
				c0-0.6,0.2-1,0.6-1.5c0.3-0.4,0.7-0.7,1.2-0.7c0.3,0,0.4,0.1,0.4,0.4C-134.5,357.5-135.4,358.6-136.3,359.4z"/>
			<path class="st1" d="M-70.4,354c-0.2-0.1-0.4,0-0.5,0.1l0,0l0,0c-1.1,0.8-2.1,1.6-3.2,2.4c-0.3,0.2-0.6,0.5-1,0.7
				c-0.2,0.1-0.4,0.3-0.5,0.4l0,0l0,0c-1.1,0.7-3.3,2.2-4.7,2.2c-0.5,0-1.2-0.1-1.5-0.5c-0.1-0.2-0.2-0.4-0.2-0.6
				c0-0.9,0.5-1.7,1.1-2.4c0.3-0.3,0.6-0.7,0.9-1c0.1-0.1,0.2-0.2,0.2-0.3c0.1-0.1,0.1-0.2,0.1-0.3c0-0.3-0.1-0.6-0.3-0.8
				c-0.1-0.1-0.2-0.1-0.3-0.1c-1,0-2.7,0.8-3.6,1.3c-0.9,0.5-1.8,1-2.7,1.6c-0.5,0.3-0.9,0.6-1.4,0.9c0.1-0.1,0.1-0.2,0.2-0.3
				c0.3-0.4,0.7-0.9,1-1.3c0.1-0.2,0.4-0.6,0.4-0.8c0-1-0.8-1.3-1.7-1.3c-0.2,0-0.3,0-0.5,0.1c-0.1,0-0.2,0-0.3,0.1l0,0l0,0
				c-1.1,0.8-2.3,1.7-3.4,2.5c-0.4,0.3-0.7,0.5-1.1,0.8c-0.2,0.2-0.4,0.3-0.7,0.5l0,0l0,0c-1.3,0.9-3.8,2.5-5.4,2.5
				c-0.8,0-1.1-0.4-1.1-1.1c0-0.3,0.4-1.1,0.6-1.4c0.2-0.3,0.7-1.2,0.7-1.6c0-0.5-0.3-0.7-0.8-0.7c0,0,0,0-0.1,0
				c0.3-0.3,0.5-0.8,0.5-1.2c0-0.1,0-0.3-0.1-0.4c-0.3-0.6-1.1-0.7-1.7-0.7c-2.1,0-4.2,1.3-5.8,2.5c-1.2,1-3.3,2.7-3.3,4.4
				c0,0.6,0.4,1,0.8,1.2c0.5,0.3,1,0.4,1.6,0.4c0.9,0,2.1-0.5,2.9-0.9c0.8-0.4,1.5-0.8,2.2-1.3c0.1,0.9,0.3,1.9,1.1,2.4
				c0.4,0.3,0.9,0.4,1.4,0.4c2.3,0,4.8-1.5,6.6-2.7c0.8-0.5,1.5-1.1,2.2-1.7c0.4-0.3,0.9-0.7,1.3-1.1c-0.4,0.6-0.8,1.1-1.1,1.7
				c-0.4,0.5-0.8,1.1-1.1,1.7c-0.2,0.3-0.4,0.7-0.4,1.1c0,0.2,0.2,0.4,0.4,0.5c0.1,0.1,0.3,0.2,0.5,0.2c0.1,0,0.3-0.1,0.4-0.1
				c0.2-0.1,0.3-0.2,0.5-0.3c0.6-0.4,1.2-0.7,1.8-1.1c1.8-1.1,3.6-2.3,5.4-3.3c-0.1,0.2-0.1,0.5-0.1,0.7c-0.1,0.4-0.1,0.8-0.1,1.1
				c0,1.7,0.8,2.7,2.5,2.7c2.2,0,4.5-1.2,6.3-2.4c0.7-0.5,1.4-1,2-1.5c1.1-0.9,2.1-1.7,3.2-2.6l0,0l0,0c0.2-0.2,0.3-0.4,0.3-0.7
				C-69.9,354.3-70.1,354.1-70.4,354z M-101.7,356.5c-0.3,0.4-0.6,0.7-1,1.1c-0.2,0.2-0.4,0.4-0.7,0.6c-1.2,0.8-2.7,1.5-4.2,1.5
				c0,0-0.1,0-0.1,0c-0.1-0.1-0.1-0.4-0.1-0.5c0-1,1.1-2.1,1.8-2.7c0.9-0.8,2.1-1.6,3.3-1.6c0.3,0,0.5,0.1,0.6,0.4
				c0.1,0.1,0.1,0.2,0.2,0.3c0,0,0,0.1,0,0.1l0,0.3l0.3,0.1c0.1,0,0.2,0,0.3,0C-101.4,356.2-101.6,356.4-101.7,356.5z"/>
			<g>
				<path class="st1" d="M-119.7,362.7c-0.7,0-1.2-0.5-1.2-1.3c0-0.3,0.1-0.6,0.4-1c0.4-0.5,0.8-0.6,1-0.6c0.3,0,0.5,0.1,0.7,0.2
					c0.1,0,0.2-0.1,0.3-0.2c0.4-0.3,0.8-0.7,1.1-1c0.6-0.6,1.2-1.3,1.6-1.8c0.6-0.7,1.3-1.5,2.1-2.5c1.3-1.6,2.5-3,3.5-4.4
					c0.3-0.4,0.7-0.9,1.1-1.4c0-0.1,0.1-0.1,0.1-0.2c-0.6-0.1-1.2-0.3-1.8-0.4c-0.8-0.2-1.5-0.5-2.2-0.7c-0.6-0.2-0.9-0.7-0.9-1.3
					c0-0.2,0.1-0.4,0.2-0.5c0.2-0.3,0.6-0.5,1.1-0.5c0.1,0,0.1,0,0.2,0c0.3,0,0.6,0.1,0.9,0.2c0.5,0.1,1,0.2,1.4,0.4
					c0.7,0.2,1.2,0.3,1.7,0.5c0.2,0.1,0.5,0.1,0.8,0.2c2.1-3,4.6-5.7,7.2-8c4.1-3.5,8-5.3,11.5-5.3c1.6,0,2.8,0.3,3.8,1
					c1,0.7,1.5,1.7,1.5,2.9c0,1.8-1.4,3.9-4.3,6.2c-2,1.7-4.5,3-7.7,4.2c-3.2,1.1-6,1.7-8.5,1.7c-0.8,0-1.3,0-1.9,0
					c-0.3,0-0.6,0-0.9,0c-0.6,1-1.4,2-2.2,3.1c-0.9,1.2-1.9,2.5-3,4c-1.2,1.6-2.7,3.2-4.4,4.7c-0.4,0.3-0.7,0.6-1.1,0.9
					c-0.3,0.3-0.6,0.5-0.9,0.7C-118.7,362.3-119.3,362.7-119.7,362.7z M-105.4,346.5h1.9c2.2,0,4.5-0.5,7.3-1.3c2.9-0.9,5.2-2,7-3.4
					c2-1.4,3-2.8,3.1-4.2c0-0.6-0.3-1.1-0.9-1.6c-0.7-0.5-1.6-0.7-2.8-0.7c-2.4,0-5,1-7.7,3c-1.4,1-2.8,2.3-4.2,3.8
					C-102.9,343.3-104.1,344.8-105.4,346.5z"/>
			</g>
			<path class="st1" d="M-201.8,349.6c-2.1,0-3.9-0.5-5.2-1.6c-1.3-1.1-2-2.5-2-4.2c0-2.5,1.5-4.7,4.6-6.7c3-1.9,6.4-2.9,10.1-2.9
				c1.3,0,2.7,0.1,4.5,0.4c1.8,0.3,3.7,0.7,6,1.3c2.4,0.6,4.9,1.3,7.5,1.9c1,0.2,1.8,0.4,2.5,0.6c0.5,0.1,1.1,0.2,1.7,0.3l1,0.2
				l-0.9,0.5c-1.1,0.6-2.1,1-2.9,1c-0.1,0-0.2,0-0.3,0c-0.5,0-1-0.1-1.4-0.2l-15.6-4c-0.8-0.2-1.5-0.3-2.1-0.4
				c-0.6-0.1-1.2-0.1-1.7-0.1c-2.2,0-4.6,0.7-7.1,2.2c-2.7,1.6-4.1,3.4-4.1,5.3c0,1.1,0.7,2.2,2.1,3.2c1.5,1,3.1,1.5,5,1.5
				c1.3,0,3-0.5,5.2-1.5l0.1,0l0,0c0.4-0.1,0.8,0.2,0.9,0.6l0.1,0.3l-0.3,0.1c-1.6,0.7-3,1.3-4.4,1.6
				C-199.6,349.4-200.8,349.6-201.8,349.6z"/>
			<g>
				<g>
					<path class="st1" d="M-201,363.7c-0.8,0-1.4-0.5-1.5-1.4l0-0.1c0-0.6,0.2-1,0.6-1.2c0.1-0.1,0.3-0.1,0.4-0.1c0.1,0,0.2,0,0.4,0
						l0,0c0,0,0,0,0.1,0c0.9-0.3,2.1-1.2,3.4-2.6c1-1,1.9-2,2.5-2.9c0.7-0.9,1.5-1.9,2.4-3c-0.5,0.1-0.9,0.1-1.3,0.2
						c-0.8,0.1-1.6,0.2-2.4,0.4c-0.5,0.1-1.1,0.1-1.6,0.2l-0.4,0l-0.2-0.3c-0.2-0.3-0.3-0.6-0.3-0.9c0-0.4,0.1-0.7,0.3-0.9
						c0.3-0.5,1-0.8,1.9-0.8c0.3,0,0.6,0,0.8,0c0.5,0,1-0.1,1.4-0.1c1.4-0.2,2.8-0.4,4.1-0.5c0.9-1.3,1.9-2.7,3.1-4.4
						c0.7-0.9,1.1-1.7,1.5-2.5c0.4-0.8,0.9-1.7,1.7-2.7l0.1-0.1l1.4-0.6l1.7,0.5l-0.5,0.6c-0.3,0.4-0.6,0.8-1,1.3
						c-0.6,0.7-1.1,1.5-1.5,2.1c-1.3,1.8-2.7,3.7-3.8,5.4c0.7-0.1,1.3-0.1,1.9-0.2c0.7-0.1,1.4-0.1,2.1-0.1c0.3,0,0.6,0.1,0.8,0.4
						c0.2,0.2,0.2,0.5,0.1,0.8l0,0c-0.3,0.8-1,1.3-2.1,1.5l-5,0.6c-1.7,2.3-3.2,4.3-4.8,6.2c-0.7,0.9-1.3,1.6-1.9,2.2
						c-0.6,0.7-1.1,1.2-1.6,1.6C-199.2,363-200.1,363.7-201,363.7z"/>
				</g>
			</g>
		</g>
		<g>
			<g>
				<g>
					<g>
						<path class="st1" d="M-152.2,311.8l-0.2,7.7h2.7l0.2-7.2c2.1,1.2,4.2,1.1,6.3-0.3c1.4,0.7,2.8,1.1,4.2,1.1c2,0,3.7-0.7,5-2.1
							c1.9-2,2.8-5.1,2.7-9c0-0.3-0.2-0.5-0.5-0.5c-0.3,0-0.5,0.2-0.6,0.4c-1.2,6.4-4.7,7.7-7.4,7.7c-0.3,0-0.5,0-0.8,0
							c1.5-2,1.9-4.5,1.3-7.8c-0.1-0.3-0.3-0.5-0.6-0.4c-0.3,0-0.5,0.2-0.5,0.5c-0.5,4.5-3.4,7.5-7.1,7.5c-2,0-4-0.9-5.8-2.5
							c-1.1-2-1.1-4.1,0-6c1.1-1.9,3.3-3.2,5.6-3.2c1.5,0,3,0.5,4.4,1.4c0.2,0.1,0.4,0.1,0.6,0c1.4-0.9,2.8-1.4,4.2-1.4
							c1.4,0,2.9,0.4,4.4,1.4c0.2,0.1,0.4,0.1,0.6,0c1.5-0.9,3-1.4,4.4-1.4c3.4,0,5.6,2.7,6.2,5.3c0.7,3.8-1.8,6.3-4.5,7.3
							c-0.2,0.1-0.4,0.3-0.3,0.5l0.2,8.7h2.7l-0.2-7.4c2-1,3.5-2.5,4.3-4.4c0.9-1.9,1-4.1,0.4-6.3c-0.5-1.5-1.3-2.9-2.4-4.1
							c-1.4-1.4-3.2-2.3-5.2-2.5c-1.8-0.2-3.8,0.2-5.7,1.2c-1.7-0.8-3.3-1.2-4.9-1.2c-1.6,0-3.2,0.4-4.7,1.2c-2.3-1.2-4.8-1.6-7.1-1
							c-2.4,0.6-4.5,2.2-5.7,4.4c-1.1,2-1.4,4.3-0.7,6.5C-155.9,308.2-154.4,310.2-152.2,311.8z"/>
					</g>
				</g>
				<g>
					<path class="st1" d="M-132.6,330.2c1.2,0,2.3-0.1,3.5,0c3.1,0.3,5.7,1.6,7.3,4.4c1,1.9,1.3,4,1.1,6.1c-0.5,5.4-4.4,8.5-9.2,9
						c-3.7,0.4-7.2-0.3-10.3-2.5c-1.4-1-2-2.4-1.7-4c0.3-1.6,1.3-2.7,2.9-3.2c1.3-0.4,2.4-0.2,3.5,0.6c1.4,1,2.9,1.5,4.6,1.3
						c1.4-0.2,2.2-1.2,1.9-2.5c-0.2-0.7-0.7-1.1-1.3-1.3c-1.2-0.4-2.4-0.3-3.5,0c-0.9,0.2-1.7,0.5-2.7,0.4c-2-0.3-4-2.1-4.2-3.9
						c-0.1-1,0-2.1,0.1-3.2c0.1-2,0.2-4.1,0.4-6.1c0-0.1,0-0.1,0-0.2c0-1,1.7-1.2,2.7-1.2c3.7,0,6.3-3.3,12.2-2.6
						c2.1,0,3.8,1.7,3.9,3.8c0,2.1-1.6,3.8-3.7,3.9c-2.2,0.1-4.4,0-6.6,0C-132.8,329-132.8,329.1-132.6,330.2z"/>
				</g>
				<g>
					<path class="st1" d="M-150.9,330c-0.8,0-1.5,0.1-2.2,0c-1.7-0.3-3-1.8-3.1-3.4c-0.1-1.8,0.9-3.4,2.6-4c1.1-0.4,2.2-0.7,3.3-1
						c0.1,0,4.3-1,6.2,0.1c2.2,0.9,1.6,3.2,1.6,3.6c0,6.7,0,13.4,0,20.1c0,2.4-1.8,4.3-4.2,4.3c-2.4,0-4.2-1.9-4.2-4.3
						c0-4.9,0-9.8,0-14.7C-150.9,330.4-150.9,330.2-150.9,330z"/>
				</g>
			</g>
			<g>
				<path class="st1" d="M-110.1,329.5c0-0.1,0-0.3,0-0.4c0-0.8,0-1.6,0-2.4c0-0.5,0.2-0.7,0.6-0.7c0.4,0,0.6,0.2,0.6,0.7
					c0,1.5,0,2.9,0,4.4c0,0.3,0,0.7-0.4,0.8c-0.4,0.1-0.7,0-0.9-0.4c-0.7-1-1.5-1.9-2.2-2.9c-0.1-0.1-0.2-0.3-0.4-0.4
					c0,0.1,0,0.3,0,0.4c0,0.8,0,1.7,0,2.5c0,0.5-0.2,0.8-0.6,0.8c-0.4,0-0.6-0.2-0.6-0.8c0-1.5,0-2.9,0-4.4c0-0.3,0-0.6,0.4-0.7
					c0.4-0.1,0.7-0.1,1,0.3c0.7,1,1.5,2,2.3,3C-110.3,329.4-110.3,329.5-110.1,329.5C-110.1,329.5-110.1,329.5-110.1,329.5z"/>
				<path class="st1" d="M-105.3,331.9c-1.6,0-3.1-1.1-3.1-3c0-1.9,1.5-3.1,3.2-3.1c1.5,0,3.1,1,3.1,3
					C-102.2,330.9-103.8,332-105.3,331.9z M-107.2,328.9c0,1.1,0.8,1.9,1.8,1.9c1,0,1.8-0.8,1.8-1.9c0-1.1-0.8-2-1.9-1.9
					C-106.4,327-107.2,327.8-107.2,328.9z"/>
				<path class="st1" d="M-99.8,332c-0.8-0.1-1.5-0.3-2.1-0.7c-0.4-0.2-0.4-0.5-0.3-0.8c0.2-0.3,0.5-0.4,0.9-0.1
					c0.5,0.3,1,0.5,1.6,0.5c0.4,0,0.7-0.1,0.8-0.5c0.1-0.4-0.2-0.6-0.5-0.7c-0.4-0.1-0.9-0.3-1.3-0.4c-1-0.3-1.3-0.9-1.3-1.7
					c0-0.8,0.6-1.4,1.5-1.6c0.8-0.2,1.5,0,2.2,0.4c0.4,0.2,0.5,0.5,0.4,0.8c-0.1,0.3-0.5,0.4-0.9,0.2c-0.3-0.1-0.6-0.3-0.9-0.3
					c-0.3,0-0.6,0-0.8,0.1c-0.4,0.2-0.4,0.7,0,0.9c0.3,0.1,0.6,0.2,0.9,0.3c0.4,0.1,0.8,0.2,1.1,0.4c0.6,0.3,0.9,0.7,0.9,1.4
					c0,0.7-0.3,1.3-0.9,1.6C-98.9,331.8-99.3,331.9-99.8,332z"/>
				<path class="st1" d="M-117.3,330.5c-0.1,0-0.1,0-0.2,0c-0.8-0.1-1.3,0.1-1.5,1c-0.1,0.4-0.5,0.5-0.8,0.4
					c-0.3-0.1-0.4-0.4-0.2-0.9c0.7-1.5,1.3-3,2-4.5c0.2-0.4,0.4-0.6,0.8-0.6c0.4,0,0.6,0.2,0.8,0.6c0.7,1.5,1.3,3,2,4.5
					c0.2,0.4,0.1,0.7-0.2,0.9c-0.3,0.1-0.7,0-0.8-0.4c-0.2-0.9-0.8-1.1-1.6-1C-117.1,330.5-117.2,330.5-117.3,330.5z M-116.4,329.4
					c-0.3-0.7-0.6-1.3-0.8-2c0,0-0.1,0-0.1,0c-0.3,0.6-0.5,1.3-0.8,1.9C-117.5,329.4-117,329.4-116.4,329.4z"/>
				<path class="st1" d="M-112,324.2c0.3,0.1,0.6,0.2,0.9,0.3c0.3,0.1,0.5,0.1,0.8-0.2c0.1-0.1,0.3-0.1,0.4-0.1
					c0,0.2,0.2,0.3,0.1,0.5c-0.2,0.7-0.6,0.9-1.3,0.7c-0.2,0-0.3-0.1-0.5-0.2c-0.3-0.1-0.6-0.1-0.8,0.2c-0.1,0.1-0.3,0.1-0.5,0.1
					c0-0.2-0.1-0.3-0.1-0.5C-112.9,324.5-112.6,324.2-112,324.2z"/>
			</g>
		</g>
	</g>
</g>
</svg>
