<?xml version="1.0" encoding="utf-8"?>
<!-- Generator: Adobe Illustrator 19.0.0, SVG Export Plug-In . SVG Version: 6.00 Build 0)  -->
<svg version="1.1" id="Capa_1" xmlns="http://www.w3.org/2000/svg" xmlns:xlink="http://www.w3.org/1999/xlink" x="0px" y="0px"
	 viewBox="-189 236 300 210" style="enable-background:new -189 236 300 210;" xml:space="preserve">
<style type="text/css">
	.st0{fill:#342B20;}
	.st1{fill:#FFFFFF;}
</style>
<g>
	<g>
		<g>
			<path class="st0" d="M83.9,309.9c0-27.9-14.4-27.9-42-27.9c0-25.7-4.4-21.3-37.7-21.3c-28.6,0-39.7-13.6-43.1-19.5
				c-3.5,6-14.5,19.5-43.1,19.5c-33.4,0-37.7-4.4-37.7,21.3c-27.6,0-42,0-42,27.9c0,22.2-24.6,31.1-24.6,31.1s24.6,8.9,24.6,31.1
				c0,27.9,14.4,27.9,42,27.9c0,25.7,4.4,21.3,37.7,21.3c28.6,0,39.7,13.6,43.1,19.5c3.5-6,14.5-19.5,43.1-19.5
				c33.4,0,37.7,4.4,37.7-21.3c27.6,0,42,0,42-27.9c0-22.2,24.6-31.1,24.6-31.1S83.9,332.1,83.9,309.9z"/>
		</g>
		<path class="st1" d="M-39,251.8c7.1,7.3,20.1,15.4,43.1,15.4c4.9,0,9.1-0.1,12.7-0.2c2.7-0.1,5.3-0.1,7.5-0.1
			c5.5,0,8.7,0.4,9.4,1.3c1.6,1.9,1.6,10.6,1.6,13.8v5.2v1.3h1.3h5.3c28.7,0,35.5,0.8,35.5,21.4c0,15.3,9.2,25.2,17.5,31.1
			c-8.4,5.9-17.5,15.8-17.5,31.1c0,13.3-3.6,16.9-7,18.6c-5.7,2.8-15.8,2.8-28.5,2.8h-5.2h-1.3v1.3v5.2c0,3.3,0,11.9-1.6,13.8
			c-0.7,0.8-3.9,1.3-9.4,1.3c-2.2,0-4.8-0.1-7.5-0.1c-3.7-0.1-7.9-0.2-12.7-0.2c-23,0-36.1,8.2-43.1,15.4
			c-7.1-7.3-20.1-15.4-43.1-15.4c-4.9,0-9.1,0.1-12.8,0.2c-2.7,0.1-5.3,0.1-7.5,0.1c-5.5,0-8.7-0.4-9.4-1.3
			c-1.6-1.9-1.6-10.6-1.6-13.8v-5.2v-1.3h-1.3h-5.3c-28.7,0-35.5-0.8-35.5-21.4c0-15.3-9.2-25.2-17.5-31.1
			c8.4-5.9,17.5-15.8,17.5-31.1c0-13.3,3.6-16.9,7-18.6c5.7-2.8,15.8-2.8,28.5-2.8h5.2h1.3v-1.3V282c0-3.3,0-11.9,1.6-13.8
			c0.7-0.8,3.9-1.3,9.4-1.3c2.2,0,4.8,0.1,7.5,0.1c3.7,0.1,7.9,0.2,12.8,0.2C-59.1,267.2-46.1,259.1-39,251.8L-39,251.8z M-39,249.9
			c-6.5,7.2-19.4,16-43.1,16c-4.8,0-9-0.1-12.7-0.2c-2.9-0.1-5.3-0.1-7.5-0.1c-6.4,0-9.4,0.5-10.4,1.7c-1.7,2-1.9,8.5-1.9,14.7v5.2
			h-5.2c-12.9,0-23.1,0-29.1,3c-3.8,1.9-7.8,5.7-7.8,19.8c0,15.9-10.4,25.8-18.6,31.1c8.1,5.3,18.6,15.2,18.6,31.1
			c0,21.8,7.6,22.7,36.8,22.7h5.3v5.2c0,6.1,0.2,12.6,1.9,14.7c1,1.2,4,1.7,10.4,1.7c2.2,0,4.7-0.1,7.5-0.1
			c3.7-0.1,7.9-0.2,12.7-0.2c23.8,0,36.6,8.8,43.1,16c6.5-7.2,19.4-16,43.1-16c4.8,0,9,0.1,12.7,0.2c2.9,0.1,5.3,0.1,7.5,0.1
			c6.4,0,9.4-0.5,10.4-1.7c1.7-2,1.9-8.5,1.9-14.7v-5.2h5.2c12.9,0,23.1,0,29.1-2.9c3.8-1.9,7.8-5.7,7.8-19.8
			c0-15.9,10.4-25.8,18.6-31.1c-8.1-5.3-18.6-15.2-18.6-31.1c0-21.8-7.6-22.7-36.8-22.7h-5.3V282c0-6.1-0.2-12.6-1.9-14.7
			c-1-1.2-4-1.7-10.4-1.7c-2.2,0-4.7,0.1-7.5,0.1c-3.7,0.1-7.9,0.2-12.7,0.2C-19.6,265.9-32.5,257.1-39,249.9L-39,249.9z"/>
		<path class="st1" d="M-18.8,404.8c-0.1-1.2-0.2-0.5-2.8-0.6c-2.6-0.1-4.3-2-5.6-3.5c0,0,0,0,0,0c-1.3-1.6-3.4-2.6-5.2-2.6
			c-4.4,0-6.4,4-6.7,4.5l0,0l0,0c-0.2-0.5-2.3-4.5-6.7-4.5c-1.8,0-3.9,0.9-5.2,2.6c0,0,0,0,0,0c-1.3,1.5-3,3.5-5.5,3.5
			c-2.6,0.1-2.7-0.6-2.8,0.6c-0.1,1.2,1.6,2.8,4.3,1.3c1.4-0.8,2.2-1.3,2.8-1.9c-0.2,3.5,3.6,6.6,6.7,5.6c3.3-1,3.9-4.1,3.3-5.8
			c-0.3-0.6-0.7-1.4-1.4-1.8c-1.2-0.8-2.5-0.4-2.7,0c-0.1,0.4,1.3,0.6,1.7,1.9c0.4,1.3-0.3,2.9-2.1,2.9c0,0-0.1,0-0.1,0
			c-0.2,0-0.3,0-0.4-0.1c-1.3-0.2-2.5-1.4-2.6-3.1c-0.1-2.2,1.8-4.3,4.1-4.5c1.3-0.1,2.4,0.1,3.3,0.6c0.8,0.5,2.1,1.7,3,4
			c-0.3,0.7-0.5,1.6-0.7,2.5c-0.4,2.2-0.1,3.8,0.6,4.3c0.1,0.1,0.3,0.1,0.4,0.1l0,0c0.1,0,0.3,0,0.4-0.1c0.7-0.5,1-2.1,0.6-4.3
			c-0.2-1-0.4-1.8-0.7-2.5c0.8-2.3,2.1-3.5,3-4c0.9-0.5,2-0.7,3.3-0.6c2.3,0.2,4.3,2.2,4.1,4.5c-0.1,1.8-1.3,2.9-2.6,3.1
			c-0.1,0-0.2,0-0.4,0.1c0,0-0.1,0-0.1,0c-1.9,0-2.5-1.6-2.1-2.9c0.4-1.3,1.8-1.5,1.7-1.9c-0.1-0.4-1.5-0.8-2.7,0
			c-0.7,0.4-1.1,1.2-1.4,1.8c-0.6,1.6,0,4.8,3.3,5.8c3.1,1,6.9-2.1,6.7-5.6c0.5,0.5,1.3,1.1,2.8,1.9
			C-20.4,407.6-18.7,406-18.8,404.8z M-39,410L-39,410L-39,410c-0.2-0.3-0.5-1.3-0.1-3.2c0-0.2,0.1-0.4,0.1-0.6v0v0
			c0,0.2,0.1,0.4,0.1,0.6C-38.5,408.8-38.8,409.7-39,410z"/>
		<circle class="st1" cx="-142.5" cy="301.2" r="2.9"/>
		<circle class="st1" cx="-142.5" cy="380.8" r="2.9"/>
		<circle class="st1" cx="64.5" cy="301.2" r="2.9"/>
		<circle class="st1" cx="64.5" cy="380.8" r="2.9"/>
		<g>
			<path class="st1" d="M-138.7,317.9h2.3c0.4,0,0.8,0,1.1,0.1c0.3,0.1,0.6,0.2,0.8,0.4c0.2,0.2,0.4,0.4,0.5,0.6
				c0.1,0.3,0.2,0.6,0.2,0.9c0,0.4-0.1,0.7-0.2,1c-0.1,0.3-0.3,0.5-0.6,0.7c-0.2,0.2-0.5,0.3-0.9,0.4c-0.3,0.1-0.7,0.1-1.1,0.1h-1.2
				v3.3h-1V317.9z M-137.7,321.2h1.1c0.3,0,0.5,0,0.7-0.1c0.2,0,0.4-0.1,0.6-0.2c0.2-0.1,0.3-0.2,0.4-0.4c0.1-0.2,0.1-0.3,0.1-0.6
				c0-0.2,0-0.4-0.1-0.6c-0.1-0.2-0.2-0.3-0.4-0.4c-0.2-0.1-0.3-0.2-0.5-0.2c-0.2,0-0.4-0.1-0.7-0.1h-1.1V321.2z"/>
			<path class="st1" d="M-132.8,325.3h-1.2l3.2-7.4h0.9l3.2,7.4h-1.2l-0.8-1.8h-3.5L-132.8,325.3z M-131.7,322.6h2.8l-1.4-3.5
				L-131.7,322.6z"/>
			<path class="st1" d="M-120.4,323.8L-120.4,323.8l0-6h1v7.4h-1.3l-3.9-6.1h0v6.1h-1v-7.4h1.4L-120.4,323.8z"/>
			<path class="st1" d="M-117.2,325.3h-1.2l3.2-7.4h0.9l3.2,7.4h-1.2l-0.8-1.8h-3.5L-117.2,325.3z M-116.1,322.6h2.8l-1.4-3.5
				L-116.1,322.6z"/>
			<path class="st1" d="M-110,317.9h2.6c0.5,0,1,0.1,1.4,0.2c0.5,0.1,0.9,0.4,1.3,0.7c0.4,0.3,0.7,0.7,0.9,1.2
				c0.2,0.5,0.4,1,0.4,1.7c0,0.6-0.1,1.2-0.4,1.7c-0.2,0.5-0.6,0.9-0.9,1.2c-0.4,0.3-0.8,0.5-1.3,0.7c-0.5,0.2-1,0.2-1.4,0.2h-2.6
				V317.9z M-109,324.4h1.3c0.4,0,0.9-0.1,1.2-0.2c0.4-0.1,0.7-0.3,1-0.5c0.3-0.2,0.5-0.5,0.6-0.9c0.2-0.4,0.2-0.7,0.2-1.2
				c0-0.5-0.1-0.9-0.2-1.2c-0.2-0.4-0.4-0.6-0.6-0.9c-0.3-0.2-0.6-0.4-1-0.5c-0.4-0.1-0.8-0.2-1.2-0.2h-1.3V324.4z"/>
			<path class="st1" d="M-101,324.4h3.9v0.9h-4.9v-7.4h4.8v0.9h-3.7v2.2h3.5v0.9h-3.5V324.4z"/>
			<path class="st1" d="M-94.6,325.3h-1v-7.4h2.4c0.4,0,0.7,0,1,0.1c0.3,0.1,0.6,0.2,0.8,0.4c0.2,0.2,0.4,0.4,0.6,0.6
				c0.1,0.3,0.2,0.6,0.2,1c0,0.5-0.2,1-0.5,1.3c-0.3,0.3-0.8,0.6-1.3,0.6l2.1,3.4h-1.3l-1.9-3.3h-1.1V325.3z M-94.6,321.1h1.2
				c0.2,0,0.5,0,0.7-0.1c0.2,0,0.4-0.1,0.6-0.2c0.2-0.1,0.3-0.2,0.4-0.4c0.1-0.2,0.1-0.3,0.1-0.6c0-0.2,0-0.4-0.1-0.6
				c-0.1-0.2-0.2-0.3-0.4-0.4c-0.2-0.1-0.3-0.2-0.5-0.2c-0.2,0-0.4-0.1-0.6-0.1h-1.3V321.1z"/>
			<path class="st1" d="M-88.4,317.3h-0.8l1-1.5h1.2L-88.4,317.3z M-88.2,325.3h-1v-7.4h1V325.3z"/>
			<path class="st1" d="M-86.1,325.3h-1.2l3.2-7.4h0.9l3.2,7.4H-81l-0.8-1.8h-3.5L-86.1,325.3z M-85,322.6h2.8l-1.4-3.5L-85,322.6z"
				/>
		</g>
	</g>
	<g>
		<g>
			<path class="st1" d="M-19.6,362.3c-0.3-0.1-0.7-0.1-0.9,0.2c-1.8,2-3.9,3.7-6,5.3c-1.2,0.9-4.3,3.1-5.9,3.1
				c-0.4,0-0.7-0.1-1.1-0.3c1.7-1.6,3.1-3.6,3.1-6.1c0-2.2-1.3-3.3-3.4-3.3c-2.6,0-5.4,2-7.4,3.7l0,0c-0.6,0.6-1.3,1.2-2,2
				c-0.4,0.3-0.8,0.5-1.1,0.8c-1.1,0.7-2.1,1.5-3.3,2.1c-2.3,1.3-5.2,2.6-7.9,2.6c-1.1,0-2.3-0.2-3.2-1c-0.7-0.6-1.1-1.4-1.1-2.4
				c0-1.7,1.6-3.5,2.7-4.6c1.4-1.3,3.2-2.7,5.1-2.7c0.2,0,0.8,0,1,0.2c0,0.4-0.4,0.9-0.6,1.2c-0.3,0.3-0.7,0.7-1.1,0.7
				c-0.3,0-0.6,0-0.8-0.2c-0.3-0.2-0.6-0.3-0.9-0.3c-1.4,0-2.2,0.8-2.2,2.3c0,0.1,0,0.3,0.1,0.4c0.3,0.6,1.1,0.7,1.7,0.7
				c1.4,0,2.9-0.8,4-1.5c1.3-0.8,2.7-2,2.7-3.7c0-1.5-1-2.2-2.4-2.2c-3.4,0-6.3,1.6-8.8,4c-0.2,0.2-0.3,0.3-0.5,0.5
				c-0.8,0.6-1.7,1.3-2.5,1.9c-1,0.7-2,1.5-3.1,2.1l0,0l0,0c-1.9,1.3-4.7,2.9-7.2,3.4c0.7-0.7,1.3-1.4,1.7-2.1
				c0.9-1.2,1.8-2.8,1.8-4.3c0-2.1-1.2-3.1-3.2-3.1c-0.8,0-1.5,0.2-2.1,0.5c-0.2,0-0.4,0.1-0.5,0.2l0,0l0,0c-1.6,1.3-3.3,2.6-5,3.9
				c-0.5,0.4-1,0.8-1.5,1.2c-0.3,0.2-0.6,0.4-0.9,0.7c-0.8,0.6-1.9,1.3-3.1,2c-0.3,0.2-0.6,0.3-0.9,0.5c-1.5,0.8-3,1.3-4.3,1.3
				c-0.6,0-1.2-0.2-1.8-0.5l0,0l0,0c-0.6-0.4-0.9-0.9-0.9-1.6c1.4-0.7,2.8-1.7,4.1-2.8c0.7-0.6,1.4-1.2,2-1.9
				c0.7-0.6,1.2-1.4,1.2-2.4c0-0.7-0.3-1.2-0.8-1.6c-0.4-0.4-1-0.7-1.6-0.7c-2.1,0-4.1,2-5.4,3.5c-1.3,1.5-2.6,3.3-2.9,5.4
				c-2.3,1.4-5.3,3-7.6,3c-0.5,0-0.9-0.2-1.2-0.5c-0.3-0.3-0.5-0.7-0.5-1.2c0-1,1.6-2.6,2.2-3.2c0.9-0.9,2.6-2.5,2.6-4
				c0-0.4-0.1-0.7-0.3-1c-0.4-0.6-1.2-0.8-1.9-0.8c-0.4,0-0.8,0.1-1.2,0.1c-0.2,0-0.4,0.1-0.5,0.1c0.5-0.7,1-1.5,1-2.4
				c0-0.9-0.7-1.3-1.5-1.3c-1.3,0-2.6,1.4-3.4,2.3c-0.8,0.9-2,2.4-2,3.6c0,0.3,0.1,0.5,0.2,0.8c-1.7,1.3-3.4,2.6-5.2,3.8
				c-0.7,0.5-1.4,0.9-2.2,1.3c-0.6,0.3-1.1,0.6-1.7,0.9l-0.1,0l-0.1,0.1c-0.3,0.4-0.7,0.9-0.7,1.4c0,0.1,0,0.1,0,0.2
				c0.2,0.6,0.9,0.6,1.4,0.6h0.1l0.1,0c1.6-0.7,3.2-1.7,4.6-2.8c1.9-1.4,3.8-2.9,5.6-4.5h0c0.7,0,1.5-0.1,2.2-0.2
				c0.4-0.1,0.8-0.1,1.2-0.2c-0.7,0.8-1.4,1.5-2.1,2.3l0,0l0,0c-0.7,0.9-1.7,2.2-1.7,3.4c0,1,0.4,1.9,1.1,2.6
				c0.7,0.7,1.5,1.1,2.5,1.1c3.1,0,6.3-1.4,9-3.1c0.5,1.9,1.9,2.9,4.2,2.9c2.1,0,4.3-0.7,6.3-1.7c0.9-0.4,1.9-0.9,2.7-1.4l0.1,0.1
				c0.4,0.4,0.8,0.8,1.3,1.2c0.2,0.2,0.5,0.5,0.8,0.7c1.1,0.7,2.3,1,3.6,1c4.6,0,8.8-1.4,12.7-4l0,0c0.4-0.2,0.7-0.5,1-0.8
				c0.3-0.2,0.5-0.4,0.8-0.6c-0.1,0.3-0.1,0.6-0.1,0.9c0,1.5,0.5,2.7,1.6,3.8c1.1,1.1,2.5,1.5,4,1.5c4.3,0,8.3-1.7,12-4
				c0,0.3-0.1,0.6-0.1,0.9c0,2.1,1.5,2.8,3.4,2.8c1.6,0,3.2-0.6,4.7-1.4l0,0c0.7-0.4,1.7-1,2.4-1.7c0.8,0.6,1.6,0.9,2.6,0.9
				c2.2,0,5.2-2.1,6.9-3.4c1.2-0.9,2.5-1.8,3.6-2.9c0.9-0.8,1.8-1.7,2.6-2.7c0.3-0.3,0.4-0.6,0.4-1C-19,362.7-19.3,362.4-19.6,362.3
				z M-91.8,365c0.4-0.5,1.5-1.6,2.2-1.6c0,0,0.1,0,0.2,0c0,0.2-0.1,0.5-0.2,0.7c-1,0.7-1.9,1.5-2.9,2.2c-0.1,0.1-0.3,0.2-0.4,0.3
				C-92.7,366-92.1,365.4-91.8,365z M-74.2,369.1c-1,1.3-2.3,2.1-4,2.1c-0.8,0-1.9-0.6-2.7-1.1c0.9-0.7,1.7-1.3,2.6-2
				c1.3-1.1,2.6-2.2,3.9-3.4c0.3-0.1,0.6-0.1,0.8-0.1c0.7,0,1,0.3,1,1C-72.6,366.9-73.4,368.2-74.2,369.1z M-41,372.3
				c-0.3,0-0.6,0-0.8-0.2c-0.4-0.3-0.4-0.9-0.4-1.4c0-0.7,0.3-1.4,0.7-2.1c0.7-0.6,1.5-1.2,2.2-1.8l0,0c0.5-0.4,1-0.9,1.5-1.3
				c0.2-0.1,0.4-0.2,0.6-0.3c-0.2,0.8-0.3,1.6-0.3,2.4c0,1.1,0.3,2.1,0.9,2.9C-37.9,371.4-39.4,372.3-41,372.3z M-35,368.9
				c-0.3-0.6-0.4-1.5-0.4-2.1c0-0.8,0.3-1.6,0.8-2.2c0.5-0.6,1.1-1,1.8-1c0.4,0,0.5,0.1,0.5,0.6C-32.1,366-33.6,367.7-35,368.9z"/>
			<path class="st1" d="M65,360.7c-0.3-0.1-0.6,0-0.8,0.1l0,0l0,0c-1.6,1.2-3.3,2.5-4.9,3.7c-0.5,0.4-1,0.7-1.5,1.1
				c-0.3,0.2-0.5,0.4-0.8,0.6l0,0l0,0c-1.6,1.1-5.1,3.4-7.1,3.4c-0.7,0-1.8-0.1-2.2-0.7c-0.2-0.3-0.3-0.6-0.3-0.9
				c0-1.4,0.8-2.6,1.6-3.6c0.5-0.5,0.9-1,1.3-1.6c0.1-0.1,0.2-0.3,0.3-0.4c0.1-0.1,0.2-0.3,0.2-0.5c0-0.4-0.1-0.9-0.5-1.1
				c-0.1-0.1-0.3-0.1-0.5-0.1c-1.6,0-4,1.2-5.4,2c-1.4,0.7-2.8,1.6-4.1,2.4c-0.7,0.4-1.4,0.9-2.2,1.4c0.1-0.1,0.2-0.3,0.3-0.4
				c0.5-0.6,1-1.3,1.4-2c0.2-0.3,0.6-0.9,0.6-1.3c0-1.5-1.2-2-2.5-2c-0.3,0-0.5,0.1-0.8,0.2c-0.2,0-0.3,0.1-0.4,0.2l0,0l0,0
				c-1.7,1.3-3.4,2.6-5.1,3.8c-0.5,0.4-1.1,0.8-1.6,1.2c-0.3,0.2-0.7,0.5-1,0.7l0,0l0,0c-1.9,1.3-5.8,3.8-8.2,3.8
				c-1.2,0-1.6-0.5-1.6-1.7c0-0.5,0.7-1.7,0.9-2.2c0.3-0.5,1-1.8,1-2.4c0-0.7-0.5-1.1-1.2-1.1c0,0-0.1,0-0.1,0
				c0.5-0.5,0.7-1.2,0.7-1.9c0-0.2,0-0.4-0.1-0.6c-0.4-0.9-1.7-1-2.6-1c-3.2,0-6.3,2-8.7,3.8c-1.9,1.4-5,4.1-5,6.7
				c0,0.9,0.5,1.5,1.3,1.9c0.7,0.4,1.5,0.6,2.4,0.6c1.4,0,3.2-0.8,4.5-1.4c1.1-0.6,2.3-1.2,3.4-2c0.1,1.4,0.5,2.9,1.7,3.7
				c0.6,0.4,1.3,0.6,2.1,0.6c3.4,0,7.3-2.3,10-4.1c1.1-0.8,2.3-1.7,3.3-2.5c0.7-0.5,1.3-1.1,2-1.6c-0.6,0.8-1.2,1.7-1.7,2.5
				c-0.6,0.8-1.2,1.7-1.7,2.6c-0.2,0.4-0.6,1.1-0.6,1.6c0,0.3,0.3,0.6,0.6,0.8c0.2,0.2,0.5,0.3,0.8,0.3c0.2,0,0.4-0.1,0.6-0.2
				c0.3-0.1,0.5-0.3,0.8-0.4c0.9-0.6,1.8-1.1,2.7-1.7c2.7-1.7,5.5-3.4,8.3-5c-0.1,0.4-0.2,0.7-0.2,1.1c-0.1,0.6-0.2,1.2-0.2,1.7
				c0,2.5,1.3,4,3.9,4c3.3,0,6.8-1.9,9.5-3.7c1.1-0.7,2.1-1.5,3.1-2.3c1.6-1.3,3.3-2.6,4.9-4l0,0l0,0c0.3-0.3,0.4-0.6,0.4-1
				C65.6,361.1,65.4,360.8,65,360.7z M17.5,364.5c-0.5,0.5-1,1.1-1.5,1.6c-0.3,0.3-0.7,0.6-1,0.9c-1.8,1.2-4.1,2.3-6.3,2.3
				c-0.1,0-0.1,0-0.2,0c-0.2-0.1-0.2-0.5-0.2-0.7c0-1.5,1.7-3.2,2.8-4.1c1.3-1.2,3.2-2.4,5-2.4c0.5,0,0.7,0.2,0.9,0.6
				c0.1,0.2,0.2,0.3,0.3,0.5c0,0,0.1,0.1,0.1,0.2l0,0.4l0.5,0.1c0.1,0,0.3,0,0.4,0C17.9,364.1,17.7,364.3,17.5,364.5z"/>
			<g>
				<path class="st1" d="M-9.8,373.8c-1.1,0-1.8-0.8-1.8-1.9c0-0.5,0.2-1,0.5-1.5c0.5-0.8,1.2-1,1.6-1c0.4,0,0.8,0.1,1.1,0.3
					c0.1-0.1,0.3-0.2,0.4-0.3c0.6-0.5,1.1-1,1.6-1.5c0.9-0.9,1.8-1.9,2.4-2.7c1-1.1,2-2.3,3.2-3.8c2-2.5,3.7-4.6,5.4-6.7
					c0.5-0.6,1-1.4,1.6-2.2c0.1-0.1,0.1-0.2,0.2-0.3c-1-0.2-1.9-0.4-2.7-0.6c-1.2-0.3-2.3-0.7-3.3-1.1c-0.9-0.4-1.4-1.1-1.4-2
					c0-0.3,0.1-0.6,0.2-0.8c0.3-0.5,0.9-0.7,1.6-0.7c0.1,0,0.2,0,0.3,0c0.4,0,0.9,0.1,1.3,0.2c0.7,0.2,1.5,0.4,2.1,0.6
					c1,0.3,1.9,0.5,2.6,0.7c0.4,0.1,0.8,0.2,1.2,0.3c3.3-4.5,6.9-8.6,11-12.1c6.2-5.4,12.1-8.1,17.4-8.1c2.4,0,4.3,0.5,5.7,1.5
					c1.5,1.1,2.3,2.5,2.3,4.4c0,2.8-2.1,5.9-6.5,9.5c-3,2.5-6.8,4.6-11.6,6.3c-4.8,1.7-9,2.6-12.9,2.6c-1.1,0-2,0-2.9,0
					c-0.5,0-0.9,0-1.4-0.1c-1,1.5-2,3-3.3,4.7c-1.4,1.9-2.8,3.9-4.5,6c-1.9,2.4-4.1,4.8-6.6,7.1c-0.6,0.5-1.1,1-1.6,1.4
					c-0.5,0.4-0.9,0.7-1.3,1C-8.3,373.4-9.1,373.8-9.8,373.8z M12,349.3h2.8c3.3,0,6.9-0.7,11.1-2c4.3-1.4,7.8-3.1,10.7-5.1
					c3-2.1,4.6-4.3,4.7-6.4c0-0.9-0.4-1.7-1.4-2.4c-1.1-0.7-2.5-1.1-4.2-1.1c-3.7,0-7.6,1.5-11.7,4.5c-2.1,1.6-4.2,3.4-6.4,5.8
					C15.7,344.6,13.9,346.7,12,349.3z"/>
			</g>
			<path class="st1" d="M-134.2,354c-3.2,0-5.9-0.8-7.8-2.4c-2-1.6-3-3.8-3-6.4c0-3.8,2.3-7.2,7-10.2c4.5-3,9.7-4.4,15.2-4.4
				c2,0,4.1,0.2,6.9,0.7c2.7,0.5,5.6,1.1,9.1,2c3.6,0.9,7.5,1.9,11.4,2.9c1.5,0.4,2.7,0.6,3.8,0.9c0.8,0.2,1.7,0.4,2.6,0.5l1.6,0.3
				l-1.4,0.8c-1.7,1-3.2,1.5-4.4,1.6c-0.2,0-0.3,0-0.5,0c-0.8,0-1.5-0.1-2.1-0.2l-23.7-6.1c-1.2-0.3-2.2-0.5-3.2-0.7
				c-1-0.1-1.8-0.2-2.5-0.2c-3.4,0-7,1.1-10.7,3.3c-4.1,2.4-6.1,5.1-6.1,8c0,1.7,1.1,3.3,3.3,4.8c2.2,1.5,4.8,2.3,7.5,2.3
				c2,0,4.6-0.8,7.8-2.3l0.1,0l0.1,0c0.7-0.1,1.2,0.3,1.4,1l0.1,0.5l-0.4,0.2c-2.4,1.1-4.6,1.9-6.6,2.5
				C-130.8,353.7-132.6,354-134.2,354z"/>
			<g>
				<g>
					<path class="st1" d="M-132.9,375.4c-1.3,0-2.1-0.8-2.3-2.1l0-0.1c0-0.9,0.3-1.5,0.8-1.8c0.2-0.1,0.4-0.2,0.7-0.2
						c0.2,0,0.4,0,0.6,0l0,0c0,0,0.1,0,0.1,0c1.4-0.5,3.1-1.8,5.2-3.9c1.5-1.5,2.8-3.1,3.8-4.3c1.1-1.4,2.3-2.8,3.6-4.5
						c-0.7,0.1-1.4,0.2-1.9,0.3c-1.2,0.2-2.4,0.4-3.7,0.5c-0.8,0.1-1.6,0.2-2.5,0.3l-0.6,0.1l-0.3-0.5c-0.3-0.4-0.5-0.9-0.5-1.4
						c0-0.5,0.1-1,0.4-1.4c0.5-0.8,1.5-1.2,2.8-1.2c0.4,0,0.8,0,1.3-0.1c0.8-0.1,1.5-0.1,2.1-0.2c2.1-0.2,4.2-0.5,6.2-0.8
						c1.4-2,2.9-4.1,4.7-6.6c1-1.4,1.7-2.6,2.3-3.7c0.7-1.2,1.4-2.5,2.6-4.1l0.1-0.1l2.1-0.9l2.6,0.8l-0.8,1c-0.5,0.6-1,1.2-1.5,1.9
						c-0.8,1.1-1.6,2.2-2.3,3.2c-2,2.8-4,5.7-5.8,8.2c1.1-0.1,2-0.2,2.9-0.3c1-0.1,2.1-0.2,3.2-0.2c0.5,0,0.9,0.2,1.2,0.6
						c0.3,0.3,0.3,0.8,0.1,1.3l0,0c-0.4,1.2-1.5,2-3.1,2.2l-7.6,0.9c-2.5,3.4-4.9,6.5-7.3,9.4c-1.1,1.3-2,2.4-3,3.4
						c-0.9,1-1.7,1.8-2.4,2.5C-130.2,374.3-131.7,375.4-132.9,375.4z"/>
				</g>
			</g>
		</g>
		<g>
			<g>
				<g>
					<g>
						<path class="st1" d="M-59,296.7l-0.4,11.6h4l0.3-11c3.2,1.8,6.4,1.7,9.6-0.4c2.1,1.1,4.3,1.7,6.4,1.7c3,0,5.6-1.1,7.6-3.2
							c2.9-3,4.3-7.7,4.1-13.6c0-0.4-0.3-0.8-0.8-0.8c-0.4,0-0.8,0.3-0.9,0.7c-1.8,9.7-7.1,11.7-11.3,11.7c-0.4,0-0.8,0-1.2-0.1
							c2.3-3,2.9-6.9,1.9-11.9c-0.1-0.4-0.4-0.7-0.8-0.7c-0.4,0-0.8,0.3-0.8,0.7c-0.8,6.8-5.1,11.4-10.7,11.4c-3,0-6-1.3-8.7-3.8
							c-1.6-3-1.6-6.2,0-9c1.7-3,5-4.8,8.5-4.8c2.3,0,4.5,0.7,6.7,2.2c0.3,0.2,0.6,0.2,0.9,0c2.2-1.4,4.3-2.1,6.4-2.1
							c2.2,0,4.4,0.7,6.7,2.1c0.3,0.2,0.6,0.2,0.9,0c2.2-1.4,4.5-2.2,6.7-2.2c5.1,0,8.5,4,9.3,8c1.1,5.7-2.8,9.5-6.8,11.1
							c-0.3,0.1-0.5,0.4-0.5,0.8l0.4,13.1h4.1l-0.4-11.2c3-1.6,5.3-3.8,6.6-6.6c1.3-2.9,1.6-6.3,0.6-9.5c-0.7-2.3-1.9-4.5-3.6-6.2
							c-2.2-2.2-4.9-3.5-7.8-3.8c-2.8-0.3-5.8,0.4-8.6,1.9c-2.5-1.3-4.9-1.9-7.4-1.9c-2.4,0-4.8,0.6-7.1,1.8
							c-3.5-1.9-7.3-2.4-10.8-1.5c-3.7,1-6.8,3.4-8.6,6.7c-1.7,3-2,6.6-1.1,9.9C-64.6,291.3-62.3,294.3-59,296.7z"/>
					</g>
				</g>
				<g>
					<path class="st1" d="M-29.4,324.6c1.8,0,3.6-0.2,5.3,0c4.7,0.5,8.6,2.4,11,6.7c1.6,2.9,1.9,6,1.7,9.3c-0.7,8.2-6.7,13-14,13.6
						c-5.7,0.5-10.9-0.5-15.6-3.8c-2.1-1.5-3-3.6-2.5-6.1c0.4-2.5,1.9-4.2,4.4-4.9c1.9-0.6,3.7-0.3,5.3,0.9c2.1,1.5,4.4,2.3,6.9,2
						c2.1-0.2,3.4-1.8,2.9-3.7c-0.2-1.1-1-1.6-2-2c-1.8-0.6-3.6-0.5-5.4-0.1c-1.3,0.3-2.6,0.8-4,0.6c-3-0.5-6.1-3.2-6.4-5.9
						c-0.2-1.6,0-3.2,0.1-4.8c0.2-3.1,0.4-6.2,0.6-9.3c0-0.1,0-0.2,0-0.2c0.1-1.6,2.5-1.8,4-1.8c5.6-0.1,9.6-5,18.5-3.9
						c3.3,0,5.8,2.5,5.9,5.8c0.1,3.2-2.4,5.8-5.5,5.9c-3.3,0.1-6.6,0-9.9,0.1C-29.6,322.9-29.7,322.9-29.4,324.6z"/>
				</g>
				<g>
					<path class="st1" d="M-57,324.3c-1.2,0-2.3,0.2-3.4,0c-2.5-0.4-4.5-2.7-4.7-5.1c-0.2-2.8,1.3-5.2,3.9-6.1
						c1.7-0.6,3.4-1,5.1-1.5c0.2-0.1,6.5-1.6,9.4,0.1c3.3,1.4,2.5,4.9,2.5,5.4c0,10.2,0,20.3,0,30.5c0,3.7-2.8,6.5-6.4,6.5
						c-3.6,0-6.3-2.8-6.3-6.5c0-7.4,0-14.9,0-22.3C-57,324.9-57,324.6-57,324.3z"/>
				</g>
			</g>
			<g>
				<path class="st1" d="M4.8,323.6c0-0.2,0-0.4,0-0.6c0-1.2,0-2.5,0-3.7c0-0.7,0.3-1.1,0.9-1.1c0.6,0,0.9,0.4,0.9,1.1
					c0,2.2,0,4.4,0,6.6c0,0.5,0,1-0.6,1.2c-0.6,0.2-1.1-0.1-1.4-0.6c-1.1-1.5-2.2-2.9-3.4-4.4c-0.2-0.2-0.3-0.4-0.6-0.5
					c0,0.2,0,0.4,0,0.6c0,1.3,0,2.5,0,3.8c0,0.8-0.3,1.2-0.9,1.2c-0.6,0-0.9-0.4-0.9-1.2c0-2.2,0-4.4,0-6.7c0-0.5,0-1,0.6-1.1
					c0.6-0.1,1.1-0.1,1.5,0.4c1.1,1.5,2.3,3,3.4,4.5c0.1,0.2,0.2,0.3,0.4,0.4C4.7,323.6,4.8,323.6,4.8,323.6z"/>
				<path class="st1" d="M12,327.3c-2.4,0.1-4.7-1.7-4.7-4.5c0-2.8,2.2-4.6,4.8-4.6c2.2,0,4.6,1.5,4.7,4.6
					C16.8,325.7,14.3,327.4,12,327.3z M9.2,322.7c0,1.6,1.2,2.9,2.8,2.9c1.6,0,2.8-1.3,2.8-2.9c0-1.7-1.2-3-2.8-2.9
					C10.4,319.8,9.2,321,9.2,322.7z"/>
				<path class="st1" d="M20.5,327.4c-1.2-0.1-2.2-0.4-3.2-1c-0.5-0.4-0.7-0.8-0.4-1.3c0.3-0.5,0.8-0.6,1.3-0.2
					c0.7,0.5,1.5,0.8,2.4,0.7c0.5,0,1.1-0.2,1.2-0.8c0.1-0.6-0.3-0.9-0.8-1c-0.7-0.2-1.3-0.4-2-0.6c-1.6-0.5-2-1.4-2-2.5
					c0-1.3,0.9-2.2,2.3-2.4c1.2-0.3,2.3,0,3.4,0.6c0.6,0.3,0.8,0.8,0.6,1.3c-0.2,0.5-0.7,0.6-1.3,0.3c-0.4-0.2-0.9-0.4-1.4-0.5
					c-0.4-0.1-0.8,0-1.2,0.1c-0.6,0.3-0.7,1.1-0.1,1.4c0.4,0.2,0.9,0.3,1.3,0.5c0.6,0.2,1.1,0.3,1.7,0.6c0.9,0.4,1.4,1.1,1.4,2.1
					c0,1-0.4,1.9-1.4,2.4C21.7,327.1,21.1,327.2,20.5,327.4z"/>
				<path class="st1" d="M-6.1,325.1c-0.1,0-0.2,0-0.3,0c-1.2-0.2-2,0.2-2.3,1.5c-0.2,0.6-0.7,0.8-1.2,0.6c-0.5-0.2-0.6-0.7-0.3-1.3
					c1-2.3,2-4.6,3-6.9c0.2-0.5,0.6-0.9,1.2-0.9c0.6,0,1,0.4,1.2,0.9c1,2.3,2,4.5,3,6.8c0.3,0.6,0.1,1.1-0.3,1.3
					c-0.5,0.2-1.1,0-1.3-0.6c-0.3-1.3-1.1-1.7-2.4-1.4C-5.8,325.1-5.9,325.1-6.1,325.1z M-4.7,323.5c-0.4-1-0.8-2-1.2-3
					c-0.1,0-0.1,0-0.2,0c-0.4,0.9-0.8,1.9-1.2,2.9C-6.4,323.5-5.6,323.5-4.7,323.5z"/>
				<path class="st1" d="M1.8,315.5c0.4,0.1,0.9,0.3,1.3,0.4c0.4,0.1,0.8,0.2,1.2-0.3c0.1-0.2,0.4-0.2,0.7-0.2
					c0.1,0.2,0.2,0.5,0.2,0.7c-0.3,1-0.9,1.4-2,1.1c-0.3-0.1-0.5-0.2-0.8-0.3c-0.5-0.2-0.8-0.2-1.2,0.2c-0.1,0.2-0.5,0.1-0.7,0.2
					c-0.1-0.2-0.2-0.5-0.2-0.7C0.6,316,1.1,315.6,1.8,315.5z"/>
			</g>
		</g>
	</g>
</g>
</svg>
